<?xml version="1.0" encoding="utf-8"?>
<!-- Generator: Adobe Illustrator 19.1.0, SVG Export Plug-In . SVG Version: 6.00 Build 0)  -->
<svg version="1.1" id="Layer_1" xmlns="http://www.w3.org/2000/svg" xmlns:xlink="http://www.w3.org/1999/xlink" x="0px" y="0px"
	 viewBox="41 365.7 694.9 63.3" style="enable-background:new 41 365.7 694.9 63.3;" xml:space="preserve">
<style type="text/css">
	.st0{fill:#5D5D5D;stroke:#5D5D5D;stroke-miterlimit:10;}
	.st1{clip-path:url(#SVGID_2_);fill:#7ECDC5;}
	.st2{clip-path:url(#SVGID_4_);}
	.st3{clip-path:url(#SVGID_6_);}
	.st4{clip-path:url(#SVGID_8_);fill:#7ECDC5;}
	.st5{clip-path:url(#SVGID_10_);enable-background:new    ;}
	.st6{clip-path:url(#SVGID_12_);}
	.st7{clip-path:url(#SVGID_14_);fill:#65B3AC;}
	.st8{clip-path:url(#SVGID_16_);fill:#FFFFFF;}
</style>
<g>
	<path class="st0" d="M128.4,395.4c0-5.9,2-11,5.9-15.1s8.7-6.2,14.3-6.2s10.4,2.1,14.2,6.2c3.9,4.1,5.8,9.2,5.9,15.1
		c0,5.9-2,11-5.9,15.1c-3.9,4.1-8.6,6.2-14.2,6.2s-10.4-2.1-14.3-6.2C130.4,406.3,128.4,401.3,128.4,395.4z M148.6,377.1
		c-4.7,0-8.8,1.8-12.2,5.3s-5.1,7.9-5.1,13c0,5.1,1.7,9.5,5.1,13c3.4,3.6,7.4,5.3,12.1,5.3s8.8-1.8,12.1-5.4c3.4-3.6,5.1-7.9,5.1-13
		c0-5.2-1.7-9.5-5.1-13C157.3,378.9,153.3,377.1,148.6,377.1z"/>
	<path class="st0" d="M185,415.3v-39c0-0.4,0.1-0.8,0.4-1c0.3-0.3,0.6-0.5,1-0.5s0.8,0.1,1,0.4c0.3,0.3,0.5,0.6,0.5,1.1v24.3
		l25.4-25.4c0.3-0.3,0.7-0.4,1.1-0.4c0.4,0,0.7,0.1,1,0.4s0.4,0.6,0.4,1s-0.2,0.8-0.5,1.1l-16.1,16.1l16.4,20.9
		c0.5,0.7,0.4,1.4-0.2,2.1c-0.2,0.2-0.6,0.3-1,0.3s-0.8-0.2-1-0.5l-16.3-20.6l-9.2,9.2v10.5c0,0.4-0.2,0.7-0.5,1
		c-0.3,0.3-0.7,0.4-1,0.4c-0.4,0-0.7-0.1-1-0.4C185.1,416,185,415.7,185,415.3z"/>
	<path class="st0" d="M229.7,395.4c0-5.9,2-11,5.9-15.1s8.7-6.2,14.3-6.2s10.4,2.1,14.2,6.2c3.9,4.1,5.8,9.2,5.9,15.1
		c0,5.9-2,11-5.9,15.1c-3.9,4.1-8.6,6.2-14.2,6.2c-5.6,0-10.4-2.1-14.3-6.2C231.7,406.3,229.8,401.3,229.7,395.4z M249.9,377.1
		c-4.7,0-8.8,1.8-12.2,5.3s-5.1,7.9-5.1,13c0,5.1,1.7,9.5,5.1,13c3.4,3.6,7.4,5.3,12.1,5.3c4.7,0,8.8-1.8,12.1-5.4
		c3.4-3.6,5.1-7.9,5.1-13c0-5.2-1.7-9.5-5.1-13C258.7,378.9,254.6,377.1,249.9,377.1z"/>
	<path class="st0" d="M314.6,415.9l-25.2-35v34.4c0,0.4-0.1,0.7-0.4,1c-0.3,0.3-0.6,0.4-1,0.4c-0.4,0-0.7-0.1-1-0.4
		c-0.3-0.3-0.4-0.6-0.4-1v-38.6c-0.2-0.6-0.1-1.1,0.4-1.4c0.4-0.3,0.9-0.4,1.3-0.4c0.4,0.1,0.7,0.2,0.9,0.6l25.4,35.3v-34.2
		c0-0.4,0.1-0.7,0.4-1c0.3-0.3,0.6-0.4,1-0.4s0.8,0.1,1.1,0.4c0.3,0.3,0.4,0.6,0.4,1v38.7c0,0.4-0.1,0.7-0.4,1
		c-0.3,0.3-0.7,0.4-1.1,0.4s-0.8-0.2-1.1-0.5L314.6,415.9z"/>
	<path class="st0" d="M334.4,395.4c0-5.9,2-11,5.9-15.1s8.7-6.2,14.3-6.2c5.6,0,10.4,2.1,14.2,6.2c3.9,4.1,5.8,9.2,5.9,15.1
		c0,5.9-2,11-5.9,15.1c-3.9,4.1-8.6,6.2-14.2,6.2s-10.4-2.1-14.3-6.2C336.4,406.3,334.5,401.3,334.4,395.4z M354.6,377.1
		c-4.7,0-8.8,1.8-12.2,5.3c-3.4,3.5-5.1,7.9-5.1,13c0,5.1,1.7,9.5,5.1,13c3.4,3.6,7.4,5.3,12.1,5.3s8.8-1.8,12.1-5.4
		c3.4-3.6,5.1-7.9,5.1-13c0-5.2-1.7-9.5-5.1-13C363.4,378.9,359.3,377.1,354.6,377.1z"/>
	<path class="st0" d="M423.4,415.3v-34.6L410,399.4c-0.3,0.4-0.7,0.7-1.2,0.7h-0.1c-0.6,0-1-0.2-1.3-0.7L394,380.8v34.5
		c0,0.4-0.1,0.7-0.4,1c-0.3,0.3-0.6,0.4-1,0.4s-0.8-0.1-1.1-0.4c-0.3-0.3-0.4-0.6-0.4-1v-38.9c0-0.5,0.2-0.9,0.6-1.1l0.1-0.1
		c0.8-0.5,1.5-0.4,2,0.4l14.9,20.7l14.9-20.7c0.2-0.3,0.5-0.5,0.9-0.6c0.4-0.1,0.8,0,1.1,0.2c0.4,0.4,0.7,0.9,0.7,1.3v38.9
		c0,0.4-0.1,0.7-0.4,1c-0.3,0.3-0.6,0.4-1,0.4s-0.7-0.1-1-0.4C423.5,416,423.4,415.7,423.4,415.3z"/>
	<path class="st0" d="M445.8,415.3v-39.2c0-0.4,0.1-0.7,0.4-1c0.3-0.3,0.6-0.4,1-0.4s0.8,0.1,1.1,0.4c0.3,0.3,0.4,0.6,0.4,1v39.1
		c0,0.4-0.1,0.7-0.4,1s-0.7,0.4-1.1,0.4s-0.7-0.1-1-0.4C445.9,416,445.8,415.7,445.8,415.3z"/>
</g>
<g>
	<path class="st0" d="M572.7,416.7c-0.5,0-0.9-0.3-1.2-0.8c0-0.1,0-0.1-0.1-0.2l-10.7-25.4L550,415.7c0,0.2-0.1,0.4-0.4,0.7
		c-0.4,0.2-0.7,0.3-1,0.3c-0.4,0-0.7-0.1-0.9-0.4c-0.3-0.3-0.4-0.5-0.4-0.8L531,377c-0.2-0.4-0.2-0.7,0-1.1c0.1-0.4,0.4-0.6,0.8-0.8
		c0.4-0.2,0.7-0.2,1.1,0c0.4,0.1,0.6,0.4,0.8,0.8l15,35.7l10.7-25.3c0.3-0.6,0.8-0.9,1.4-0.9c0.6,0,1.1,0.3,1.4,0.9l10.6,25.3
		l15-35.7c0.4-0.9,1.1-1.1,2-0.7c0.4,0.2,0.6,0.4,0.8,0.8c0.1,0.4,0.1,0.8,0,1.1l-16.4,38.6c-0.2,0.6-0.6,0.9-1.2,1H572.7z"/>
	<path class="st0" d="M601.2,395.4c0-5.9,2-11,5.9-15.1s8.7-6.2,14.3-6.2s10.4,2.1,14.2,6.2c3.9,4.1,5.8,9.2,5.9,15.1
		c0,5.9-2,11-5.9,15.1c-3.9,4.1-8.6,6.2-14.2,6.2c-5.6,0-10.4-2.1-14.3-6.2C603.2,406.3,601.3,401.3,601.2,395.4z M621.4,377.1
		c-4.7,0-8.8,1.8-12.2,5.3s-5.1,7.9-5.1,13c0,5.1,1.7,9.5,5.1,13c3.4,3.6,7.4,5.3,12.1,5.3s8.8-1.8,12.1-5.4c3.4-3.6,5.1-7.9,5.1-13
		c0-5.2-1.7-9.5-5.1-13C630.2,378.9,626.1,377.1,621.4,377.1z"/>
	<path class="st0" d="M682.5,416c-2.6,0-3.8-2.9-3.8-8.8c0-2.6-1.1-4.7-3.4-6.4c-1.6-1.2-3.3-1.9-5-2.2l-0.1-0.1H660v16.6
		c0,0.4-0.2,0.7-0.4,1c-0.3,0.3-0.7,0.4-1.1,0.4c-0.4,0-0.7-0.1-1-0.4c-0.3-0.3-0.4-0.6-0.4-1v-39c0-0.4,0.1-0.7,0.4-1
		c0.3-0.3,0.6-0.4,0.9-0.5h12c3.3,0,6.1,1.2,8.5,3.5c2.4,2.3,3.5,5.2,3.5,8.5c0,2.4-0.6,4.5-1.9,6.5s-2.9,3.4-5,4.4l0.6,0.3
		c1.6,0.9,2.9,2.2,4,3.7c1.1,1.6,1.6,3.7,1.6,6.4c0,2.7,0.4,4.4,1.1,5.2c0.8-0.1,1.4,0.2,1.6,1c0.2,1-0.1,1.6-1,1.9h-0.1l-0.6,0.1
		h-0.2V416z M676.8,393c1.7-1.8,2.6-3.9,2.6-6.4s-0.9-4.6-2.7-6.4s-3.9-2.6-6.4-2.6h-10.4v18.1h10.6C673,395.7,675,394.8,676.8,393z
		"/>
	<path class="st0" d="M708.3,416.7h-8c-0.4,0-0.7-0.2-0.9-0.5c-0.3-0.3-0.4-0.6-0.4-1v-39.1c0-0.4,0.1-0.7,0.4-1
		c0.3-0.3,0.6-0.4,1-0.4h7.9c5.8,0,10.8,2.1,14.9,6.2c4.1,4.1,6.1,9.1,6.1,14.9c0,5.8-2,10.7-6.1,14.8
		C719.1,414.7,714.1,416.7,708.3,416.7z M702,413.8h6.4c5,0,9.3-1.8,12.8-5.3s5.3-7.8,5.3-12.8s-1.8-9.2-5.3-12.8
		c-3.5-3.5-7.8-5.3-12.8-5.3H702V413.8z"/>
</g>
<g>
	<g>
		<defs>
			<path id="SVGID_1_" d="M485.8,405.7c-0.4,0-0.8-0.6-0.8-1.3V393c0-0.7,0.3-1.3,0.8-1.3h12.5c0.4,0,0.8,0.6,0.8,1.3v11.4
				c0,0.7-0.3,1.3-0.8,1.3C498.3,405.7,485.8,405.7,485.8,405.7z"/>
		</defs>
		<clipPath id="SVGID_2_">
			<use xlink:href="#SVGID_1_"  style="overflow:visible;"/>
		</clipPath>
		<rect x="480" y="386.7" class="st1" width="24" height="24"/>
	</g>
</g>
<g>
	<g>
		<g>
			<defs>
				<path id="SVGID_3_" d="M41,368.7c0-1.7,1.4-3,3-3h56c1.7,0,3,1.4,3,3v56c0,1.7-1.4,3-3,3H44c-1.7,0-3-1.4-3-3V368.7z"/>
			</defs>
			<clipPath id="SVGID_4_">
				<use xlink:href="#SVGID_3_"  style="overflow:visible;"/>
			</clipPath>
			<g class="st2">
				<g>
					<g>
						<defs>
							<rect id="SVGID_5_" x="41" y="365.7" width="62" height="62"/>
						</defs>
						<clipPath id="SVGID_6_">
							<use xlink:href="#SVGID_5_"  style="overflow:visible;"/>
						</clipPath>
						<g class="st3">
							<g>
								<defs>
									<rect id="SVGID_7_" x="41" y="365.7" width="62" height="62"/>
								</defs>
								<clipPath id="SVGID_8_">
									<use xlink:href="#SVGID_7_"  style="overflow:visible;"/>
								</clipPath>
								<rect x="36" y="360.7" class="st4" width="72" height="72"/>
							</g>
							<g>
								<defs>
									<rect id="SVGID_9_" x="41" y="365.7" width="62" height="62"/>
								</defs>
								<clipPath id="SVGID_10_">
									<use xlink:href="#SVGID_9_"  style="overflow:visible;"/>
								</clipPath>
								<g class="st5">
									<g>
										<defs>
											<polygon id="SVGID_11_" points="72.7,383.6 72.7,410 70.2,413.1 64.9,412.9 96.4,444.4 122.8,418.2 114.6,392.2 
												114.5,409.4 112.8,411.4 80.6,379.3 77.8,380.1 74.3,381.9 											"/>
										</defs>
										<clipPath id="SVGID_12_">
											<use xlink:href="#SVGID_11_"  style="overflow:visible;"/>
										</clipPath>
										<g class="st6">
											<g>
												<defs>
													<rect id="SVGID_13_" x="41" y="365.7" width="62" height="62"/>
												</defs>
												<clipPath id="SVGID_14_">
													<use xlink:href="#SVGID_13_"  style="overflow:visible;"/>
												</clipPath>
												<rect x="59.9" y="374.3" class="st7" width="67.9" height="75.1"/>
											</g>
										</g>
									</g>
								</g>
							</g>
						</g>
						<g class="st3">
							<g>
								<defs>
									<path id="SVGID_15_" d="M74,410.1c0,0.6,0.5,1.1,1.1,1.1H80c0.6,0,1.1,0.5,1.1,1.1v1.1c0,0.6-0.5,1.1-1.1,1.1h-5.4
										c-0.6,0-1.1-0.5-1.1-1.1c0-0.6-0.5-1.1-1.1-1.1s-1.1,0.5-1.1,1.1c0,0.6-0.5,1.1-1.1,1.1h-5.4c-0.6,0-1.1-0.5-1.1-1.1v-1.1
										c0-0.6,0.5-1.1,1.1-1.1h4.9c0.6,0,1.1-0.5,1.1-1.1v-26.7c0-0.6-0.5-1.1-1.1-1.1h-4.9c-0.6,0-1.1-0.5-1.1-1.1v-1.1
										c0-0.6,0.5-1.1,1.1-1.1h5.4c0.6,0,1.1,0.5,1.1,1.1v0.6c0,0.6,0.5,1.1,1.1,1.1s1.1-0.5,1.1-1.1v-0.5c0-0.6,0.5-1.1,1.1-1.1
										H80c0.6,0,1.1,0.5,1.1,1.1v1.1c0,0.6-0.5,1.1-1.1,1.1h-4.9c-0.6,0-1.1,0.5-1.1,1.1V410.1z"/>
								</defs>
								<clipPath id="SVGID_16_">
									<use xlink:href="#SVGID_15_"  style="overflow:visible;"/>
								</clipPath>
								<rect x="58.7" y="374.1" class="st8" width="27.3" height="45.3"/>
							</g>
						</g>
					</g>
				</g>
			</g>
		</g>
	</g>
</g>
</svg>
