<?xml version="1.0" encoding="utf-8"?>
<!-- Generator: Adobe Illustrator 19.1.0, SVG Export Plug-In . SVG Version: 6.00 Build 0)  -->
<svg version="1.1" id="Layer_1" xmlns="http://www.w3.org/2000/svg" xmlns:xlink="http://www.w3.org/1999/xlink" x="0px" y="0px"
	 viewBox="0 0 694.9 63.3" style="enable-background:new 0 0 694.9 63.3;" xml:space="preserve">
<style type="text/css">
	.st0{fill:#BABABA;stroke:#BABABA;stroke-miterlimit:10;}
	.st1{clip-path:url(#SVGID_2_);fill:#CBCBCB;}
	.st2{clip-path:url(#SVGID_4_);enable-background:new    ;}
	.st3{clip-path:url(#SVGID_6_);}
	.st4{clip-path:url(#SVGID_8_);fill:#CBCBCB;}
	.st5{clip-path:url(#SVGID_10_);}
	.st6{clip-path:url(#SVGID_12_);fill:#BABABA;}
	.st7{clip-path:url(#SVGID_14_);fill:#FFFFFF;}
</style>
<g>
	<path class="st0" d="M84.3,29c0-5.7,1.9-10.6,5.7-14.6c3.8-4,8.4-6,13.8-6c5.4,0,10,2,13.7,6c3.7,4,5.6,8.8,5.7,14.6
		c0,5.7-1.9,10.6-5.7,14.6c-3.7,4-8.3,6-13.7,6c-5.4,0-10-2-13.8-6C86.3,39.5,84.4,34.7,84.3,29z M103.8,11.3
		c-4.6,0-8.5,1.7-11.8,5.1c-3.3,3.4-4.9,7.6-4.9,12.5c0,5,1.6,9.2,4.9,12.6c3.3,3.4,7.2,5.2,11.7,5.2c4.6,0,8.5-1.7,11.7-5.2
		c3.2-3.5,4.9-7.6,4.9-12.5c0-5-1.7-9.2-4.9-12.6C112.3,13,108.4,11.3,103.8,11.3z"/>
	<path class="st0" d="M142.3,48.1V10.6c0-0.4,0.1-0.7,0.4-1c0.3-0.3,0.6-0.4,1-0.4c0.4,0,0.7,0.1,1,0.4c0.3,0.3,0.4,0.6,0.4,1V34
		l24.5-24.5c0.3-0.3,0.7-0.4,1-0.4c0.4,0,0.7,0.1,1,0.4c0.3,0.3,0.4,0.6,0.4,1c0,0.4-0.2,0.7-0.5,1l-15.5,15.5l15.9,20.1
		c0.5,0.7,0.4,1.4-0.2,2c-0.2,0.2-0.6,0.3-1,0.3c-0.4,0-0.8-0.2-1-0.5L154,29.1l-8.9,8.9v10.1c0,0.4-0.1,0.7-0.4,1
		c-0.3,0.3-0.6,0.4-1,0.4c-0.4,0-0.7-0.1-1-0.4C142.4,48.9,142.3,48.5,142.3,48.1z"/>
	<path class="st0" d="M188.8,29c0-5.7,1.9-10.6,5.7-14.6c3.8-4,8.4-6,13.8-6c5.4,0,10,2,13.7,6c3.7,4,5.6,8.8,5.7,14.6
		c0,5.7-1.9,10.6-5.7,14.6c-3.7,4-8.3,6-13.7,6c-5.4,0-10-2-13.8-6C190.8,39.5,188.9,34.7,188.8,29z M208.3,11.3
		c-4.6,0-8.5,1.7-11.8,5.1c-3.3,3.4-4.9,7.6-4.9,12.5c0,5,1.6,9.2,4.9,12.6c3.3,3.4,7.2,5.2,11.7,5.2c4.6,0,8.5-1.7,11.7-5.2
		c3.2-3.5,4.9-7.6,4.9-12.5c0-5-1.7-9.2-4.9-12.6C216.8,13,212.9,11.3,208.3,11.3z"/>
	<path class="st0" d="M274,48.8L249.7,15v33.2c0,0.4-0.1,0.7-0.4,1c-0.3,0.3-0.6,0.4-1,0.4c-0.4,0-0.7-0.1-1-0.4
		c-0.3-0.3-0.4-0.6-0.4-1V11c-0.2-0.6-0.1-1.1,0.3-1.4c0.4-0.3,0.8-0.4,1.2-0.4c0.4,0.1,0.7,0.2,0.9,0.6l24.5,34v-33
		c0-0.4,0.1-0.7,0.4-1c0.3-0.3,0.6-0.4,1-0.4c0.4,0,0.7,0.1,1,0.4c0.3,0.3,0.4,0.6,0.4,1v37.3c0,0.4-0.1,0.7-0.4,1
		c-0.3,0.3-0.6,0.4-1.1,0.4c-0.4,0-0.8-0.2-1-0.5L274,48.8z"/>
	<path class="st0" d="M296.6,29c0-5.7,1.9-10.6,5.7-14.6c3.8-4,8.4-6,13.8-6c5.4,0,10,2,13.7,6c3.7,4,5.6,8.8,5.7,14.6
		c0,5.7-1.9,10.6-5.7,14.6c-3.7,4-8.3,6-13.7,6c-5.4,0-10-2-13.8-6C298.5,39.5,296.6,34.7,296.6,29z M316,11.3
		c-4.6,0-8.5,1.7-11.8,5.1c-3.3,3.4-4.9,7.6-4.9,12.5c0,5,1.6,9.2,4.9,12.6c3.3,3.4,7.2,5.2,11.7,5.2c4.6,0,8.5-1.7,11.7-5.2
		c3.2-3.5,4.9-7.6,4.9-12.5c0-5-1.7-9.2-4.9-12.6C324.5,13,320.6,11.3,316,11.3z"/>
	<path class="st0" d="M385.8,48.1V14.8l-13,18c-0.3,0.4-0.7,0.6-1.2,0.6h-0.1c-0.5,0-0.9-0.2-1.2-0.6l-13-17.9v33.3
		c0,0.4-0.1,0.7-0.4,1c-0.3,0.3-0.6,0.4-1,0.4c-0.4,0-0.7-0.1-1-0.4c-0.3-0.3-0.4-0.6-0.4-1V10.6c0-0.5,0.2-0.8,0.6-1.1l0.1-0.1
		c0.8-0.5,1.4-0.4,2,0.3l14.4,20l14.4-20c0.2-0.3,0.5-0.5,0.9-0.6c0.4-0.1,0.8,0,1.1,0.2c0.4,0.4,0.6,0.8,0.6,1.2v37.5
		c0,0.4-0.1,0.7-0.4,1c-0.3,0.3-0.6,0.4-1,0.4c-0.4,0-0.7-0.1-1-0.4C385.9,48.9,385.8,48.5,385.8,48.1z"/>
	<path class="st0" d="M410.7,48.1V10.4c0-0.4,0.1-0.7,0.4-1c0.3-0.3,0.6-0.4,1-0.4c0.4,0,0.7,0.1,1,0.4c0.3,0.3,0.4,0.6,0.4,1v37.7
		c0,0.4-0.1,0.7-0.4,1c-0.3,0.3-0.6,0.4-1,0.4c-0.4,0-0.7-0.1-1-0.4C410.9,48.9,410.7,48.5,410.7,48.1z"/>
</g>
<g>
	<path class="st0" d="M531.7,49.5c-0.5,0-0.9-0.3-1.2-0.8c0-0.1,0-0.1-0.1-0.2l-10.3-24.5l-10.4,24.5c0,0.2-0.1,0.4-0.4,0.7
		c-0.4,0.2-0.7,0.3-1,0.3c-0.3,0-0.6-0.1-0.9-0.4c-0.3-0.3-0.4-0.5-0.4-0.8l-15.6-37.2c-0.2-0.3-0.2-0.7,0-1.1
		c0.1-0.4,0.4-0.6,0.7-0.8c0.3-0.2,0.7-0.2,1.1,0s0.6,0.4,0.8,0.7l14.5,34.4l10.3-24.4c0.3-0.6,0.8-0.9,1.4-0.9s1.1,0.3,1.4,0.9
		l10.2,24.4l14.5-34.4c0.4-0.8,1.1-1.1,1.9-0.7c0.3,0.2,0.6,0.4,0.7,0.8c0.1,0.4,0.1,0.7,0,1.1l-15.7,37.4c-0.2,0.5-0.6,0.8-1.2,0.9
		H531.7z"/>
	<path class="st0" d="M562.6,29c0-5.7,1.9-10.6,5.7-14.6c3.8-4,8.4-6,13.8-6c5.4,0,10,2,13.7,6c3.7,4,5.6,8.8,5.7,14.6
		c0,5.7-1.9,10.6-5.7,14.6c-3.7,4-8.3,6-13.7,6c-5.4,0-10-2-13.8-6C564.5,39.5,562.6,34.7,562.6,29z M582.1,11.3
		c-4.6,0-8.5,1.7-11.8,5.1c-3.3,3.4-4.9,7.6-4.9,12.5c0,5,1.6,9.2,4.9,12.6c3.3,3.4,7.2,5.2,11.7,5.2s8.5-1.7,11.7-5.2
		c3.2-3.5,4.9-7.6,4.9-12.5c0-5-1.7-9.2-4.9-12.6C590.5,13,586.6,11.3,582.1,11.3z"/>
	<path class="st0" d="M644.4,48.9c-2.5,0-3.7-2.8-3.7-8.5c0-2.5-1.1-4.5-3.3-6.1c-1.6-1.1-3.2-1.8-4.9-2.1c0,0-0.1-0.1-0.1-0.1h-9.8
		v16c0,0.4-0.1,0.7-0.4,1c-0.3,0.3-0.6,0.4-1,0.4c-0.4,0-0.7-0.1-1-0.4c-0.3-0.3-0.4-0.6-0.4-1V10.4c0-0.3,0.1-0.7,0.4-0.9
		c0.3-0.3,0.6-0.4,0.9-0.5h11.6c3.2,0,5.9,1.1,8.2,3.4c2.2,2.3,3.4,5,3.4,8.2c0,2.3-0.6,4.4-1.8,6.3c-1.2,1.9-2.8,3.3-4.8,4.2
		l0.6,0.3c1.5,0.9,2.8,2.1,3.9,3.6s1.6,3.6,1.6,6.1c0,2.6,0.4,4.2,1.1,5c0.8-0.1,1.3,0.2,1.6,0.9c0.2,0.9-0.1,1.5-0.9,1.9h-0.1
		l-0.6,0.1H644.4z M638.8,26.7c1.7-1.7,2.5-3.7,2.5-6.1c0-2.4-0.9-4.4-2.6-6.1c-1.7-1.7-3.8-2.5-6.2-2.5h-10v17.5h10.2
		C635.2,29.3,637.2,28.4,638.8,26.7z"/>
	<path class="st0" d="M672.6,49.5h-7.7c-0.3,0-0.6-0.2-0.9-0.4c-0.3-0.2-0.4-0.6-0.4-1V10.4c0-0.4,0.1-0.7,0.4-1
		c0.3-0.3,0.6-0.4,1-0.4h7.6c5.6,0,10.4,2,14.3,6c4,4,5.9,8.8,5.9,14.4c0,5.6-2,10.4-5.9,14.3C683,47.6,678.2,49.5,672.6,49.5z
		 M666.5,46.7h6.1c4.8,0,8.9-1.7,12.3-5.1c3.4-3.4,5.1-7.5,5.1-12.3c0-4.8-1.7-8.9-5.1-12.3c-3.4-3.4-7.5-5.1-12.3-5.2h-6.1V46.7z"
		/>
</g>
<g>
	<defs>
		<path id="SVGID_1_" d="M447.8,38.2c-0.4,0-0.7-0.6-0.7-1.2V26c0-0.7,0.3-1.2,0.7-1.2h12c0.4,0,0.7,0.6,0.7,1.2v11
			c0,0.7-0.3,1.2-0.7,1.2H447.8z"/>
	</defs>
	<clipPath id="SVGID_2_">
		<use xlink:href="#SVGID_1_"  style="overflow:visible;"/>
	</clipPath>
	<rect x="437.8" y="15.5" class="st1" width="32" height="32"/>
</g>
<g>
	<defs>
		<path id="SVGID_3_" d="M0,6.2c0-3.1,2.5-5.6,5.6-5.6h48.7c3.1,0,5.6,2.5,5.6,5.6v48.7c0,3.1-2.5,5.6-5.6,5.6H5.6
			c-3.1,0-5.6-2.5-5.6-5.6V6.2z"/>
	</defs>
	<clipPath id="SVGID_4_">
		<use xlink:href="#SVGID_3_"  style="overflow:visible;"/>
	</clipPath>
	<g class="st2">
		<g>
			<defs>
				<rect id="SVGID_5_" y="-0.5" width="61.2" height="61.2"/>
			</defs>
			<clipPath id="SVGID_6_">
				<use xlink:href="#SVGID_5_"  style="overflow:visible;"/>
			</clipPath>
			<g class="st3">
				<defs>
					<rect id="SVGID_7_" y="-0.5" width="61.2" height="61.2"/>
				</defs>
				<clipPath id="SVGID_8_">
					<use xlink:href="#SVGID_7_"  style="overflow:visible;"/>
				</clipPath>
				<rect x="-9.3" y="-8.7" class="st4" width="78.4" height="78.4"/>
			</g>
			<g class="st3">
				<defs>
					<polygon id="SVGID_9_" points="30.6,17.8 30.6,43.4 28.2,46.4 23,46.2 53.4,76.6 78.9,51.2 71,26.2 71,42.8 69.3,44.7 
						38.2,13.7 35.6,14.5 32.1,16.3 					"/>
				</defs>
				<clipPath id="SVGID_10_">
					<use xlink:href="#SVGID_9_"  style="overflow:visible;"/>
				</clipPath>
				<g class="st5">
					<defs>
						<rect id="SVGID_11_" y="-0.5" width="61.2" height="61.2"/>
					</defs>
					<clipPath id="SVGID_12_">
						<use xlink:href="#SVGID_11_"  style="overflow:visible;"/>
					</clipPath>
					<rect x="13.8" y="4.4" class="st6" width="74.4" height="81.4"/>
				</g>
			</g>
		</g>
	</g>
</g>
<g>
	<defs>
		<path id="SVGID_13_" d="M31.8,43.5c0,0.6,0.5,1,1,1h4.7c0.6,0,1,0.5,1,1v1c0,0.6-0.5,1-1,1h-5.2c-0.6,0-1-0.5-1-1c0-0.6-0.5-1-1-1
			c-0.6,0-1,0.5-1,1c0,0.6-0.5,1-1,1H23c-0.6,0-1-0.5-1-1v-1c0-0.6,0.5-1,1-1h4.7c0.6,0,1-0.5,1-1V17.7c0-0.6-0.5-1-1-1H23
			c-0.6,0-1-0.5-1-1v-1c0-0.6,0.5-1,1-1h5.2c0.6,0,1,0.5,1,1v0.5c0,0.6,0.5,1,1,1c0.6,0,1-0.5,1-1v-0.5c0-0.6,0.5-1,1-1h5.2
			c0.6,0,1,0.5,1,1v1c0,0.6-0.5,1-1,1h-4.7c-0.6,0-1,0.5-1,1V43.5z"/>
	</defs>
	<clipPath id="SVGID_14_">
		<use xlink:href="#SVGID_13_"  style="overflow:visible;"/>
	</clipPath>
	<rect x="12.7" y="4.3" class="st7" width="35.2" height="52.6"/>
</g>
</svg>
