<svg version="1.1" xmlns="http://www.w3.org/2000/svg" xmlns:xlink="http://www.w3.org/1999/xlink" x="0px" y="0px" width="459.1px"
	 height="95.2px" viewBox="0 0 459.1 95.2" enable-background="new 0 0 459.1 95.2" xml:space="preserve">
<g id="Layer_1" display="none">
	<g display="inline">
		<linearGradient id="SVGID_1_" gradientUnits="userSpaceOnUse" x1="0.3497" y1="46.7335" x2="158.6146" y2="46.7335">
			<stop  offset="0" style="stop-color:#FF8E33"/>
			<stop  offset="1" style="stop-color:#F3AB2B"/>
		</linearGradient>
		<path fill="url(#SVGID_1_)" d="M149.9,89.2H9.1c-4.8,0-8.7-3.9-8.7-8.7V12.9c0-4.8,3.9-8.7,8.7-8.7h140.8c4.8,0,8.7,3.9,8.7,8.7
			v67.6C158.6,85.3,154.7,89.2,149.9,89.2z"/>
		<rect x="117.7" y="74.3" fill="#FFFFFF" width="0.1" height="1.9"/>
		<rect x="121.4" y="74.3" fill="#FFFFFF" width="0.3" height="1.9"/>
		<rect x="117.7" y="74.3" fill="#FFFFFF" width="0.1" height="1.9"/>
		<rect x="121.4" y="74.3" fill="#FFFFFF" width="0.3" height="1.9"/>
		<rect x="117.7" y="18.7" fill="#FFFFFF" width="0.1" height="0.5"/>
		<rect x="117.7" y="74.3" fill="#FFFFFF" width="0.1" height="2"/>
		<rect x="121.4" y="74.3" fill="#FFFFFF" width="0.3" height="2"/>
		<path fill="#FFFFFF" d="M132.7,22.2v50c0,1.1,0.9,2,2,2h9c1.1,0,2,0.9,2,2v2c0,1.1-0.9,2-2,2h-10c-1.1,0-2-0.9-2-2l0,0
			c0-1.1-0.9-2-2-2l0,0c-1.1,0-2,0.9-2,2l0,0c0,1.1-0.9,2-2,2h-10c-1.1,0-2-0.9-2-2v-2c0-1.1,0.9-2,2-2h9c1.1,0,2-0.9,2-2v-50
			c0-1.1-0.9-2-2-2h-9c-1.1,0-2-0.9-2-2v-2c0-1.1,0.9-2,2-2h10c1.1,0,2,0.9,2,2v1c0,1.1,0.9,2,2,2l0,0c1.1,0,2-0.9,2-2v-1
			c0-1.1,0.9-2,2-2h10c1.1,0,2,0.9,2,2v2c0,1.1-0.9,2-2,2h-9C133.6,20.2,132.7,21.1,132.7,22.2z"/>
		<rect x="117.7" y="74.3" fill="#FFFFFF" width="0.1" height="1.9"/>
		<rect x="121.4" y="74.3" fill="#FFFFFF" width="0.3" height="1.9"/>
		<g>
			<path fill="#545454" d="M202.5,30.1c0,1.4,0.4,2.6,1.2,3.7c0.8,1.1,1.9,2.1,3.2,3.1c1.3,0.9,2.9,1.8,4.6,2.7
				c1.7,0.8,3.4,1.7,5.2,2.6s3.5,1.9,5.2,2.9c1.7,1,3.2,2.2,4.6,3.5c1.3,1.3,2.4,2.8,3.2,4.4c0.8,1.6,1.2,3.5,1.2,5.6
				c0,1.9-0.3,3.7-0.9,5.3c-0.6,1.6-1.5,3-2.5,4.3c-1.1,1.3-2.3,2.4-3.8,3.4s-3,1.8-4.7,2.4c-1.7,0.6-3.5,1.1-5.3,1.4
				c-1.9,0.3-3.7,0.5-5.6,0.5c-2.6,0-5.2-0.3-7.7-1c-2.5-0.6-4.7-1.6-6.7-2.9c-1.9-1.3-3.5-2.9-4.7-4.9c-1.2-2-1.8-4.2-1.8-6.9
				c0-1.4,0.2-2.5,0.7-3.6c0.4-1,1-1.9,1.6-2.6c0.6-0.7,1.3-1.2,2.1-1.6c0.8-0.3,1.5-0.5,2.1-0.5c0.7,0,1.2,0.2,1.7,0.6
				s0.7,0.9,0.7,1.7c0,0.4,0,0.7-0.1,1.1c-0.1,0.4-0.2,0.8-0.3,1.3c-0.1,0.5-0.2,1-0.3,1.6c-0.1,0.6-0.1,1.2-0.1,1.9
				c0,1.5,0.3,2.8,1,3.8c0.7,1.1,1.6,2,2.7,2.7c1.1,0.7,2.4,1.2,3.9,1.6c1.5,0.3,3,0.5,4.5,0.5c1.8,0,3.7-0.2,5.5-0.7s3.5-1.1,5-2
				c1.5-0.9,2.6-1.9,3.6-3.2c0.9-1.3,1.4-2.7,1.4-4.3c0-1.5-0.4-2.8-1.2-4c-0.8-1.2-1.9-2.3-3.2-3.3c-1.3-1-2.9-2-4.6-2.8
				s-3.5-1.8-5.2-2.7c-1.8-0.9-3.5-1.9-5.2-2.9c-1.7-1-3.2-2.1-4.6-3.3s-2.4-2.6-3.2-4c-0.8-1.5-1.2-3.2-1.2-5.1
				c0-1.8,0.4-3.5,1.3-5.3c0.9-1.7,2.1-3.3,3.9-4.6c1.7-1.4,3.9-2.5,6.5-3.3c2.6-0.8,5.6-1.3,9.1-1.3c2.2,0,4.4,0.3,6.5,1
				c2.1,0.7,4,1.6,5.6,2.8s3,2.6,4,4.3c1,1.7,1.5,3.5,1.5,5.6c0,1.2-0.2,2.4-0.6,3.7c-0.4,1.3-1.1,2.6-2,4c-0.9,1.3-1.9,2.3-2.9,3
				c-1,0.6-2,1-2.8,1c-0.6,0-1.2-0.2-1.6-0.6c-0.4-0.4-0.6-0.9-0.6-1.7c0-0.5,0.1-1.2,0.4-2c0.3-0.8,0.7-1.6,1.3-2.6
				c0.6-0.9,1-1.8,1.3-2.6c0.3-0.8,0.4-1.6,0.4-2.3c0-1.1-0.3-2-0.9-2.8c-0.6-0.8-1.4-1.5-2.4-2c-1-0.5-2.3-1-3.7-1.2
				c-1.4-0.3-3-0.4-4.7-0.4c-1.9,0-3.6,0.2-5,0.7c-1.4,0.4-2.6,1-3.5,1.7c-0.9,0.7-1.6,1.5-2.1,2.3
				C202.7,28.4,202.5,29.3,202.5,30.1z"/>
			<path fill="#545454" d="M247.3,54c0.8-1,1.6-2,2.5-3.2c0.9-1.2,1.8-2.3,2.7-3.3c0.9-1.1,1.7-2,2.4-2.8s1.3-1.4,1.7-1.7
				c0.7-0.5,1.5-0.9,2.4-1.2c1-0.3,2-0.5,3.2-0.5c0.6,0,1.2,0.1,1.7,0.4c0.5,0.3,1,0.7,1.4,1.2s0.7,1.1,1,1.8
				c0.2,0.7,0.3,1.5,0.3,2.4c0,0.9-0.2,1.7-0.6,2.6c-0.4,0.9-1,1.8-1.6,2.7s-1.3,1.8-2.1,2.7c-0.7,0.9-1.4,1.8-2.1,2.7
				c-0.6,0.9-1.2,1.8-1.6,2.7c-0.4,0.9-0.6,1.8-0.6,2.7c0,0.8,0.2,1.3,0.6,1.6c0.4,0.3,0.9,0.5,1.7,0.5c0.4,0,0.9-0.1,1.4-0.4
				c0.5-0.3,1-0.7,1.5-1.1c0.5-0.5,1.1-1,1.6-1.6c0.5-0.6,1.1-1.2,1.6-1.7c0.5-0.6,1-1.2,1.4-1.7c0.4-0.5,0.8-1,1.2-1.4l1.9,7.8
				c-0.7,1-1.5,1.8-2.5,2.6c-1,0.8-2.1,1.5-3.3,2.1c-1.2,0.6-2.4,1.1-3.7,1.4c-1.3,0.3-2.5,0.5-3.6,0.5c-1.5,0-2.8-0.2-3.7-0.6
				c-1-0.4-1.7-0.9-2.3-1.5c-0.6-0.6-0.9-1.3-1.1-2.1c-0.2-0.8-0.3-1.6-0.3-2.4c0-0.5,0.1-1.1,0.2-1.8c0.1-0.7,0.3-1.5,0.7-2.4
				c0.3-0.9,0.8-1.9,1.4-2.9c0.6-1.1,1.4-2.2,2.3-3.4c0.4-0.4,0.7-0.7,1-1c0.3-0.3,0.6-0.6,0.8-0.8c0.2-0.2,0.4-0.5,0.5-0.7
				c0.1-0.2,0.2-0.4,0.2-0.7c0-0.4-0.1-0.8-0.2-1.1c-0.2-0.3-0.4-0.4-0.7-0.4c-0.4,0-0.8,0.2-1.4,0.7c-0.6,0.5-1.2,1.3-1.9,2.4
				L244,69.5c-0.5,0.8-1,1.4-1.5,1.8c-0.5,0.3-1.1,0.5-1.8,0.5c-0.9,0-1.6-0.2-2.2-0.6c-0.5-0.4-0.9-0.9-1.2-1.6
				c-0.3-0.7-0.4-1.4-0.5-2.3c-0.1-0.9-0.1-1.8-0.1-2.8c0-1.2,0-2.8,0.1-4.8c0.1-2,0.2-4.2,0.4-6.6c0.2-2.4,0.4-4.9,0.7-7.5
				c0.3-2.6,0.6-5.1,1-7.6c0.1-0.9,0.3-1.9,0.6-3.2c0.2-1.2,0.5-2.6,0.9-4c0.3-1.4,0.8-2.9,1.2-4.4c0.5-1.5,1-3,1.7-4.5
				c0.6-1.4,1.3-2.8,2.1-4.1c0.8-1.3,1.7-2.5,2.6-3.4c1-1,2-1.8,3.2-2.3c1.2-0.6,2.4-0.9,3.8-0.9c1.1,0,2,0.2,2.7,0.5
				c0.7,0.3,1.3,0.8,1.7,1.5c0.4,0.6,0.7,1.4,0.9,2.2c0.2,0.9,0.3,1.8,0.3,2.8c0,1.8-0.2,3.7-0.7,5.8c-0.5,2.1-1,4.2-1.7,6.2
				c-0.7,2.1-1.5,4.1-2.3,6.1c-0.8,2-1.6,3.7-2.4,5.3s-1.4,2.9-2,4c-0.6,1.1-1,1.8-1.2,2.1l-3.8,5.6L247.3,54z M253.5,18.4
				c-0.7,0-1.3,0.2-1.7,0.6c-0.5,0.4-0.9,1-1.4,1.8c-0.4,0.8-0.9,1.7-1.3,2.9c-0.4,1.1-0.9,2.4-1.5,3.7c-0.3,1.2-0.7,2.5-0.9,3.7
				c-0.3,1.3-0.5,2.6-0.8,3.9c-0.2,1.3-0.4,2.5-0.6,3.8c-0.2,1.2-0.3,2.4-0.5,3.5c-0.3,2.6-0.6,5.2-0.8,7.7c0.5-1.4,1-2.9,1.5-4.6
				c0.5-1.6,1.1-3.3,1.6-4.9c0.5-1.6,1-3.1,1.5-4.5c0.5-1.4,0.9-2.6,1.2-3.6c0.1-0.5,0.4-1,0.6-1.7c0.3-0.7,0.6-1.4,0.9-2.3
				c0.3-0.8,0.6-1.6,1-2.5c0.3-0.9,0.6-1.7,0.9-2.5c0.3-0.8,0.5-1.6,0.7-2.3s0.3-1.3,0.3-1.8C254.1,18.7,253.9,18.4,253.5,18.4z"/>
			<path fill="#545454" d="M287.8,65c-0.8,0.7-1.7,1.4-2.8,2.2c-1.1,0.8-2.4,1.5-3.7,2.2c-1.3,0.7-2.7,1.2-4,1.7
				c-1.4,0.4-2.7,0.7-3.9,0.7c-1.1,0-2-0.2-2.8-0.5s-1.4-0.7-1.8-1.3c-0.5-0.5-0.8-1.2-1-2c-0.2-0.8-0.3-1.7-0.3-2.6
				c0-1.3,0.2-2.9,0.5-4.6c0.3-1.8,0.7-3.6,1.1-5.5s0.9-3.8,1.4-5.7c0.5-1.9,0.9-3.6,1.3-5.2c0.1-0.5,0.4-1,0.9-1.4
				c0.4-0.4,0.9-0.7,1.5-1c0.6-0.2,1.1-0.4,1.7-0.5c0.6-0.1,1.1-0.2,1.6-0.2c0.9,0,1.5,0.2,1.8,0.5c0.3,0.3,0.5,0.8,0.5,1.3
				c0,0.5-0.1,1.1-0.3,2c-0.2,0.9-0.5,1.9-0.8,3c-0.3,1.1-0.7,2.3-1,3.6c-0.4,1.3-0.7,2.6-1,3.8c-0.3,1.3-0.6,2.5-0.8,3.7
				c-0.2,1.2-0.3,2.3-0.3,3.3c0,1,0.1,1.7,0.3,2.3c0.2,0.6,0.6,0.8,1.3,0.8c0.8,0,1.6-0.3,2.5-0.8c0.9-0.5,1.9-1.2,2.8-1.9
				c1-0.8,1.9-1.5,2.8-2.3c0.9-0.8,1.7-1.5,2.4-2.1V65z M273.6,32.3c0-0.5,0.1-1,0.3-1.7c0.2-0.6,0.6-1.2,1-1.7
				c0.5-0.5,1.1-1,1.9-1.4c0.8-0.4,1.8-0.6,3-0.6c0.7,0,1.4,0.1,2.1,0.3c0.7,0.2,1.2,0.4,1.7,0.8c0.5,0.3,0.9,0.8,1.2,1.4
				c0.3,0.6,0.4,1.2,0.4,2c0,0.7-0.1,1.4-0.3,2.1c-0.2,0.7-0.6,1.3-1.1,1.8c-0.5,0.5-1.1,1-1.9,1.3s-1.7,0.5-2.8,0.5
				c-1.9,0-3.2-0.4-4.1-1.3S273.6,33.8,273.6,32.3z"/>
			<path fill="#545454" d="M298.8,65.8c0-0.3,0-0.7,0.1-1.2c0-0.5,0.1-1.1,0.2-1.7c0.1-0.7,0.2-1.3,0.3-2.1c0.1-0.7,0.2-1.5,0.3-2.2
				c0.2-1.7,0.5-3.5,0.9-5.5H300c-0.3,0.3-0.5,0.8-0.9,1.4c-0.3,0.6-0.8,1.6-1.4,2.8c-0.6,1.2-1.3,2.8-2.3,4.8
				c-0.9,2-2.1,4.4-3.6,7.3c-0.4,0.9-0.9,1.5-1.5,1.8c-0.6,0.3-1.2,0.5-1.9,0.5c-0.9,0-1.6-0.2-2.1-0.6c-0.5-0.4-0.9-0.9-1.2-1.5
				c-0.3-0.6-0.5-1.3-0.6-2.1c-0.1-0.8-0.1-1.6-0.1-2.5c0-0.9,0.1-1.9,0.2-3.1c0.1-1.2,0.2-2.4,0.4-3.7c0.2-1.3,0.4-2.7,0.6-4
				c0.2-1.4,0.5-2.7,0.7-3.9c0.2-1.2,0.5-2.4,0.7-3.4c0.3-1,0.5-1.9,0.7-2.5c0.2-0.7,0.4-1.2,0.6-1.6c0.2-0.4,0.4-0.7,0.7-0.9
				c0.2-0.2,0.5-0.4,0.9-0.4c0.3-0.1,0.8-0.1,1.3-0.1c0.8,0,1.4,0,1.9,0.1c0.5,0.1,0.8,0.2,1,0.4c0.2,0.2,0.4,0.5,0.4,0.9
				c0,0.4,0.1,0.9,0.1,1.6c0,0.4,0,0.8,0,1.2c0,0.5-0.1,1-0.1,1.5c-0.1,0.5-0.1,1.1-0.2,1.6c-0.1,0.6-0.2,1.1-0.2,1.6
				c-0.2,1.2-0.4,2.5-0.6,3.9l0.3,0.4c0-0.1,0.3-0.5,0.7-1.2c0.4-0.7,0.9-1.6,1.5-2.7c0.6-1,1.3-2.1,2-3.3c0.7-1.1,1.4-2.1,2-3
				c0.6-0.9,1.3-1.6,2-2.2c0.7-0.6,1.5-0.9,2.5-0.9c0.9,0,1.7,0.3,2.3,0.8c0.6,0.5,1,1.3,1,2.2c0,0.8-0.1,1.6-0.2,2.3
				c-0.1,0.7-0.2,1.5-0.4,2.2c-0.2,0.7-0.3,1.4-0.5,2c-0.2,0.7-0.3,1.3-0.5,2c-0.1,0.5-0.2,0.8-0.2,0.9c0,0.1,0,0.2,0,0.3l0.3,0.4
				c0-0.1,0.3-0.5,0.7-1.2c0.4-0.7,1-1.6,1.6-2.6c0.6-1,1.3-2.1,2.1-3.3c0.7-1.1,1.4-2.1,2-3c0.6-0.8,1.2-1.6,1.8-2.1
				c0.6-0.6,1.4-0.9,2.3-0.9c1,0,1.8,0.3,2.5,0.8c0.7,0.5,1,1.3,1,2.2c0,1.5-0.1,2.8-0.2,4.2c-0.1,1.3-0.3,2.6-0.5,3.9
				c-0.2,1.3-0.4,2.6-0.5,3.9c-0.1,1.3-0.2,2.7-0.2,4.1c0,1.1,0.1,2.1,0.4,2.8c0.3,0.7,0.7,1.1,1.1,1.1c0.4,0,0.9-0.1,1.4-0.3
				c0.5-0.2,1-0.4,1.5-0.7c0.5-0.3,1-0.6,1.5-1c0.5-0.4,1-0.8,1.4-1.2c1-1,2.1-2.1,3.1-3.3l0.5,7.5c-0.9,0.7-1.9,1.5-2.8,2.3
				c-0.9,0.8-1.9,1.5-2.9,2.2c-1,0.6-2.2,1.2-3.4,1.6c-1.2,0.4-2.6,0.6-4.2,0.6c-0.8,0-1.4-0.2-1.9-0.7c-0.5-0.5-0.9-1.2-1.3-2.1
				c-0.3-0.9-0.5-1.9-0.7-3.1c-0.1-1.2-0.2-2.5-0.2-3.9c0-1.3,0-2.7,0.1-4.2c0.1-1.5,0.2-3,0.4-4.5h-0.5l-6.4,16.4
				c-0.6,0.9-1.2,1.5-1.8,1.8c-0.7,0.3-1.5,0.5-2.3,0.5c-0.7,0-1.2-0.2-1.6-0.6c-0.4-0.4-0.7-0.8-0.9-1.4c-0.2-0.6-0.4-1.2-0.4-1.9
				C298.8,67.1,298.8,66.5,298.8,65.8z"/>
			<path fill="#545454" d="M341,56.1c-0.6,2.3-1.3,4.4-2.2,6.3s-1.7,3.6-2.7,5s-1.9,2.5-3,3.2s-2,1.2-3,1.2c-1.7,0-2.9-1.2-3.6-3.6
				c-0.8-2.4-1.2-6-1.2-10.8c0-0.7,0-1.3,0-1.8c0-0.5,0-1,0-1.6c0-0.5,0.1-1.1,0.1-1.7c0-0.6,0.1-1.3,0.2-2.2c0-0.2,0.1-0.6,0.1-1.1
				c0.1-0.5,0.2-1.1,0.3-1.8c0.2-0.7,0.4-1.3,0.6-2s0.6-1.4,1-1.9c0.4-0.6,0.9-1.1,1.5-1.4s1.2-0.6,2-0.6l0.8,0.1
				c0.9,0,1.6,0.2,2.1,0.6c0.5,0.4,0.7,0.9,0.7,1.5l-2.2,17.2l0.4,0c0.9-2.2,1.7-4.1,2.4-5.9c0.7-1.8,1.3-3.4,1.9-4.8
				c0.6-1.4,1.1-2.7,1.7-3.7c0.5-1.1,1.1-1.9,1.8-2.6s1.3-1.2,2.1-1.6c0.8-0.3,1.7-0.5,2.8-0.5c0.9,0,1.6,0.2,2.1,0.6
				c0.5,0.4,0.7,0.9,0.7,1.5l-2.6,17.2l0.4,0l7.6-16.9c0.3-0.6,0.8-1.1,1.7-1.6c0.8-0.5,1.9-0.7,3-0.7c1.2,0,2.2,0.2,2.9,0.7
				c0.7,0.5,1.1,1.1,1.1,1.9c0,0.6-0.1,1.2-0.3,1.9c-0.2,0.7-0.4,1.3-0.7,1.9c-0.2,0.6-0.5,1.1-0.7,1.5c-0.2,0.4-0.3,0.6-0.3,0.7
				c-0.5,0.8-0.9,1.6-1.3,2.3c-0.4,0.7-0.7,1.4-1,1.9c-0.4,0.6-0.7,1.2-1,1.8c0.3,0.8,0.7,1.6,1.1,2.2c0.4,0.6,0.9,1.1,1.5,1.5
				c0.6,0.5,1.3,0.7,2.1,0.7c0.7,0,1.5-0.2,2.4-0.6c0.9-0.4,1.8-0.8,2.6-1.3c1-0.5,1.9-1.1,2.9-1.8v7.5c-1.4,0.9-2.8,1.6-4.3,2.1
				c-1.5,0.5-2.9,0.8-4.3,0.8c-1.1,0-2.1-0.1-3.1-0.4c-1-0.3-1.8-0.7-2.5-1.2c-0.7-0.5-1.3-1.3-1.7-2.1s-0.7-1.9-0.7-3.2
				c-0.7,1.7-1.5,3.2-2.3,4.6c-0.8,1.4-1.6,2.6-2.4,3.6s-1.7,1.8-2.5,2.4c-0.8,0.6-1.7,0.9-2.5,0.9c-0.3,0-0.6-0.2-0.8-0.7
				c-0.2-0.5-0.4-1.1-0.6-1.8c-0.1-0.8-0.3-1.7-0.4-2.7c-0.1-1-0.2-2.1-0.2-3.3s-0.1-2.3-0.1-3.5c0-1.2,0-2.4,0-3.5L341,56.1z"/>
			<path fill="#545454" d="M388,48c0.6,1.2,1.1,2.5,1.4,3.9c0.3,1.4,0.5,2.7,0.5,3.9c0,1.2-0.1,2.5-0.4,3.8
				c-0.3,1.3-0.7,2.5-1.2,3.7c-0.5,1.2-1.2,2.3-1.9,3.3c-0.8,1-1.6,1.9-2.6,2.7s-2,1.4-3.2,1.8s-2.4,0.7-3.6,0.7
				c-1.9,0-3.5-0.4-4.8-1.2c-1.3-0.8-2.4-1.9-3.3-3.2c-0.8-1.3-1.5-2.8-1.9-4.4s-0.6-3.3-0.6-5c0-2.3,0.3-4.5,1-6.5
				c0.7-2,1.7-3.8,3-5.3c1.3-1.5,2.9-2.7,4.8-3.5c1.9-0.9,4-1.3,6.3-1.3c2,0,3.9,0.3,5.6,0.9c1.8,0.6,3.4,1.5,4.9,2.5
				c1.5,1,3,2.2,4.3,3.6c1.3,1.4,2.6,2.8,3.7,4.2l-0.6,4.5c-0.6-0.8-1.3-1.6-2.3-2.5c-1-0.9-2-1.8-3.1-2.6c-1.1-0.8-2.2-1.6-3.2-2.4
				c-1.1-0.8-2-1.4-2.7-1.9L388,48z M378.2,65.6c0.7,0,1.4-0.4,2.1-1.1c0.7-0.7,1.3-1.7,1.8-2.8c0.5-1.1,0.9-2.3,1.2-3.7
				c0.3-1.3,0.5-2.6,0.5-3.9c0-1-0.1-1.9-0.2-2.7c-0.1-0.8-0.4-1.6-0.7-2.2c-0.3-0.6-0.7-1.1-1.1-1.5c-0.5-0.4-1-0.5-1.7-0.5
				c-0.9,0-1.7,0.4-2.5,1.1c-0.8,0.7-1.5,1.7-2.1,2.8c-0.6,1.2-1.1,2.4-1.4,3.8c-0.3,1.4-0.5,2.7-0.5,4c0,0.9,0.1,1.7,0.3,2.5
				c0.2,0.8,0.4,1.5,0.8,2c0.4,0.6,0.8,1,1.4,1.4C376.6,65.5,377.4,65.6,378.2,65.6z"/>
			<path fill="#545454" d="M396.2,65.1c0-0.9,0.1-2,0.2-3.3c0.1-1.2,0.2-2.5,0.4-3.9c0.2-1.4,0.4-2.8,0.6-4.2
				c0.2-1.4,0.5-2.8,0.8-4.1c0.3-1.3,0.5-2.5,0.8-3.6c0.3-1.1,0.6-2,0.8-2.7c0.2-0.5,0.3-0.8,0.5-1.1c0.2-0.3,0.4-0.5,0.6-0.7
				c0.2-0.2,0.5-0.3,0.8-0.3c0.3-0.1,0.7-0.1,1.2-0.1c0.5,0,1,0,1.3,0.1c0.3,0.1,0.5,0.2,0.7,0.4c0.1,0.2,0.2,0.5,0.3,0.9
				c0,0.4,0,0.9,0,1.6c0,0.8,0,1.7,0,2.8c0,1.1,0,2.2,0.1,3.3h0.3c0.4-0.8,0.9-1.8,1.4-2.8c0.5-1,1.1-2,1.8-2.9
				c0.7-0.9,1.5-1.7,2.4-2.3s1.9-0.9,3.1-0.9c0.4,0,0.8,0.1,1.2,0.2c0.4,0.1,0.7,0.3,1,0.6c0.3,0.3,0.5,0.6,0.7,0.9
				c0.2,0.4,0.3,0.8,0.3,1.3c0,0.4-0.1,0.9-0.2,1.5c-0.1,0.6-0.2,1.3-0.3,2s-0.2,1.4-0.3,2.1c-0.1,0.7-0.2,1.2-0.2,1.7
				c0,0.8,0.1,1.4,0.2,1.9c0.1,0.5,0.3,0.9,0.6,1.2c0.2,0.3,0.5,0.5,0.8,0.7c0.3,0.1,0.6,0.2,1,0.2c1,0,1.9-0.2,3-0.6
				c1-0.4,1.9-0.9,2.8-1.4c1-0.6,2-1.3,2.9-2.1l-0.5,7.4c-0.6,0.4-1.2,0.8-1.9,1.2c-0.7,0.4-1.4,0.9-2.2,1.3c-0.8,0.4-1.6,0.7-2.5,1
				c-0.9,0.3-1.7,0.4-2.6,0.4c-1.6,0-2.9-0.3-3.8-1c-1-0.6-1.7-1.5-2.3-2.5c-0.6-1-1-2.2-1.3-3.5c-0.3-1.3-0.5-2.6-0.7-4h-0.5
				l-5.7,15.8c-0.3,0.8-0.6,1.5-0.8,2c-0.3,0.5-0.5,1-0.8,1.3c-0.3,0.3-0.6,0.6-0.9,0.7s-0.7,0.2-1,0.2c-0.9,0-1.6-0.2-2.1-0.6
				c-0.5-0.4-0.9-0.9-1.2-1.5c-0.3-0.6-0.5-1.3-0.6-2.1C396.3,66.8,396.2,65.9,396.2,65.1z"/>
			<path fill="#545454" d="M459.4,65.5c-1.5,1.2-3,2.2-4.4,3.1c-0.6,0.4-1.3,0.8-1.9,1.1c-0.7,0.4-1.3,0.7-2,1
				c-0.7,0.3-1.3,0.5-1.9,0.7c-0.6,0.2-1.2,0.3-1.7,0.3c-0.3,0-0.7-0.1-1.3-0.2c-0.6-0.1-1.2-0.4-1.9-0.8c-0.7-0.4-1.4-1-2.1-1.7
				c-0.7-0.7-1.3-1.7-1.8-3c-0.8,0.8-1.6,1.5-2.5,2.2c-0.9,0.7-1.8,1.3-2.7,1.8c-0.9,0.5-1.9,0.9-2.9,1.2c-1,0.3-1.9,0.5-2.9,0.5
				c-1.4,0-2.6-0.3-3.6-0.9c-1-0.6-1.8-1.4-2.5-2.4c-0.7-1-1.2-2.1-1.5-3.3c-0.3-1.2-0.5-2.5-0.5-3.9c0-1.4,0.2-2.7,0.5-4.1
				c0.3-1.4,0.9-2.7,1.5-4c0.7-1.3,1.5-2.5,2.4-3.7c1-1.2,2-2.2,3.2-3.1c1.2-0.9,2.5-1.6,3.9-2.2c1.4-0.6,2.9-1,4.5-1.1
				c0.1-2.7,0.3-5.4,0.7-8c0.4-2.6,1-5.2,1.7-7.6c0.7-2.4,1.5-4.6,2.5-6.6c0.9-2,2-3.8,3.1-5.3c1.1-1.5,2.3-2.6,3.6-3.5
				s2.6-1.3,3.9-1.3c1,0,1.8,0.3,2.5,0.8c0.7,0.5,1.3,1.2,1.7,2.1c0.4,0.9,0.7,1.9,0.9,3c0.2,1.1,0.3,2.3,0.3,3.5
				c0,0.7,0,1.5-0.1,2.3c-0.3,3-0.8,5.8-1.5,8.5c-0.7,2.7-1.6,5.2-2.6,7.8c-1,2.5-2.1,5-3.2,7.5c-1.2,2.5-2.3,5-3.4,7.7
				c-0.1,0.3-0.2,0.7-0.3,1.1c-0.1,0.4-0.2,0.9-0.3,1.4c-0.1,0.5-0.2,1-0.2,1.5c-0.1,0.5-0.1,1-0.1,1.5c0,0.6,0,1.2,0.1,1.7
				c0.1,0.6,0.2,1,0.4,1.5c0.2,0.4,0.4,0.8,0.7,1c0.3,0.3,0.6,0.4,1.1,0.4c0.4,0,0.8-0.1,1.3-0.2c0.5-0.2,1-0.4,1.5-0.7
				c0.5-0.3,1.1-0.6,1.6-0.9c0.5-0.3,1.1-0.7,1.6-1.1c1.2-0.8,2.4-1.8,3.6-2.9L459.4,65.5z M437.6,47.7c-1.4,0.7-2.6,1.6-3.7,2.7
				c-1.1,1.1-2,2.3-2.7,3.6c-0.7,1.3-1.3,2.6-1.7,3.9c-0.4,1.3-0.6,2.5-0.6,3.6c0,0.4,0,0.8,0.1,1.3c0.1,0.4,0.3,0.8,0.5,1.1
				c0.3,0.3,0.6,0.6,1.1,0.8c0.5,0.2,1.1,0.3,1.8,0.3c0.4,0,0.8-0.1,1.1-0.3c0.4-0.2,0.7-0.4,1.1-0.7c0.3-0.3,0.7-0.7,1-1
				c0.3-0.4,0.6-0.8,0.8-1.2c0.6-1,1.1-2.1,1.6-3.3c-0.1-0.3-0.1-0.8-0.2-1.4c0-0.6-0.1-1.4-0.1-2.2c0-0.8,0-1.6-0.1-2.5
				c0-0.8,0-1.6,0-2.3c0-0.7,0-1.3,0-1.7C437.6,47.9,437.6,47.7,437.6,47.7z M452.5,24.7c0.1-1.5,0.2-2.7,0.2-3.5
				c0-1.1-0.1-1.9-0.3-2.4s-0.5-0.7-0.9-0.7c-0.7,0-1.3,0.4-1.8,1.3c-0.5,0.9-1,2-1.5,3.3c-0.4,1.3-0.8,2.8-1.1,4.4
				c-0.3,1.6-0.6,3.2-0.8,4.7c-0.2,1.5-0.4,2.9-0.5,4.1s-0.2,2.1-0.3,2.6c-0.1,1-0.2,2-0.2,3s-0.1,1.8-0.1,2.6c0,0.8,0,1.5,0,2.1
				c0,0.6,0,1,0,1.4v0.3c1.2-2.8,2.3-5.5,3.3-8.2c0.4-1.2,0.9-2.4,1.3-3.7c0.4-1.3,0.8-2.6,1.2-3.9c0.4-1.3,0.7-2.6,0.9-3.8
				C452.2,27,452.4,25.9,452.5,24.7z"/>
		</g>
		<linearGradient id="SVGID_2_" gradientUnits="userSpaceOnUse" x1="332.7111" y1="90.2638" x2="452.4552" y2="90.2638">
			<stop  offset="0" style="stop-color:#FF8E33"/>
			<stop  offset="1" style="stop-color:#F3AB2B"/>
		</linearGradient>
		<path fill="url(#SVGID_2_)" d="M450.1,92.6h-115c-1.3,0-2.4-1.1-2.4-2.4l0,0c0-1.3,1.1-2.4,2.4-2.4h115c1.3,0,2.4,1.1,2.4,2.4l0,0
			C452.5,91.6,451.4,92.6,450.1,92.6z"/>
	</g>
</g>
<g id="Layer_2" display="none">
	<path display="inline" fill="#F3AB2B" d="M149.6,88.2H8.7c-4.8,0-8.7-3.9-8.7-8.7V12c0-4.8,3.9-8.7,8.7-8.7h140.8
		c4.8,0,8.7,3.9,8.7,8.7v67.6C158.3,84.3,154.4,88.2,149.6,88.2z"/>
	<rect x="117.3" y="73.3" display="inline" fill="#FFFFFF" width="0.1" height="1.9"/>
	<rect x="121.1" y="73.3" display="inline" fill="#FFFFFF" width="0.3" height="1.9"/>
	<rect x="117.3" y="73.3" display="inline" fill="#FFFFFF" width="0.1" height="1.9"/>
	<rect x="121.1" y="73.3" display="inline" fill="#FFFFFF" width="0.3" height="1.9"/>
	<rect x="117.3" y="17.7" display="inline" fill="#FFFFFF" width="0.1" height="0.5"/>
	<rect x="117.3" y="73.3" display="inline" fill="#FFFFFF" width="0.1" height="2"/>
	<rect x="121.1" y="73.3" display="inline" fill="#FFFFFF" width="0.3" height="2"/>
	<path display="inline" fill="#FFFFFF" d="M132.3,21.2v50c0,1.1,0.9,2,2,2h9c1.1,0,2,0.9,2,2v2c0,1.1-0.9,2-2,2h-10
		c-1.1,0-2-0.9-2-2l0,0c0-1.1-0.9-2-2-2l0,0c-1.1,0-2,0.9-2,2l0,0c0,1.1-0.9,2-2,2h-10c-1.1,0-2-0.9-2-2v-2c0-1.1,0.9-2,2-2h9
		c1.1,0,2-0.9,2-2v-50c0-1.1-0.9-2-2-2h-9c-1.1,0-2-0.9-2-2v-2c0-1.1,0.9-2,2-2h10c1.1,0,2,0.9,2,2v1c0,1.1,0.9,2,2,2l0,0
		c1.1,0,2-0.9,2-2v-1c0-1.1,0.9-2,2-2h10c1.1,0,2,0.9,2,2v2c0,1.1-0.9,2-2,2h-9C133.2,19.2,132.3,20.1,132.3,21.2z"/>
	<rect x="117.3" y="73.3" display="inline" fill="#FFFFFF" width="0.1" height="1.9"/>
	<rect x="121.1" y="73.3" display="inline" fill="#FFFFFF" width="0.3" height="1.9"/>
	<g display="inline">
		<path fill="#545454" d="M202.1,29.1c0,1.4,0.4,2.6,1.2,3.7c0.8,1.1,1.9,2.1,3.2,3.1c1.3,0.9,2.9,1.8,4.6,2.7
			c1.7,0.8,3.4,1.7,5.2,2.6s3.5,1.9,5.2,2.9c1.7,1,3.2,2.2,4.6,3.5c1.3,1.3,2.4,2.8,3.2,4.4c0.8,1.6,1.2,3.5,1.2,5.6
			c0,1.9-0.3,3.7-0.9,5.3c-0.6,1.6-1.5,3-2.5,4.3c-1.1,1.3-2.3,2.4-3.8,3.4s-3,1.8-4.7,2.4c-1.7,0.6-3.5,1.1-5.3,1.4
			c-1.9,0.3-3.7,0.5-5.6,0.5c-2.6,0-5.2-0.3-7.7-1c-2.5-0.6-4.7-1.6-6.7-2.9c-1.9-1.3-3.5-2.9-4.7-4.9c-1.2-2-1.8-4.2-1.8-6.9
			c0-1.4,0.2-2.5,0.7-3.6c0.4-1,1-1.9,1.6-2.6c0.6-0.7,1.3-1.2,2.1-1.6c0.8-0.3,1.5-0.5,2.1-0.5c0.7,0,1.2,0.2,1.7,0.6
			s0.7,0.9,0.7,1.7c0,0.4,0,0.7-0.1,1.1c-0.1,0.4-0.2,0.8-0.3,1.3c-0.1,0.5-0.2,1-0.3,1.6c-0.1,0.6-0.1,1.2-0.1,1.9
			c0,1.5,0.3,2.8,1,3.8c0.7,1.1,1.6,2,2.7,2.7c1.1,0.7,2.4,1.2,3.9,1.6c1.5,0.3,3,0.5,4.5,0.5c1.8,0,3.7-0.2,5.5-0.7s3.5-1.1,5-2
			c1.5-0.9,2.6-1.9,3.6-3.2c0.9-1.3,1.4-2.7,1.4-4.3c0-1.5-0.4-2.8-1.2-4c-0.8-1.2-1.9-2.3-3.2-3.3c-1.3-1-2.9-2-4.6-2.8
			s-3.5-1.8-5.2-2.7c-1.8-0.9-3.5-1.9-5.2-2.9c-1.7-1-3.2-2.1-4.6-3.3s-2.4-2.6-3.2-4c-0.8-1.5-1.2-3.2-1.2-5.1
			c0-1.8,0.4-3.5,1.3-5.3c0.9-1.7,2.1-3.3,3.9-4.6c1.7-1.4,3.9-2.5,6.5-3.3c2.6-0.8,5.6-1.3,9.1-1.3c2.2,0,4.4,0.3,6.5,1
			c2.1,0.7,4,1.6,5.6,2.8s3,2.6,4,4.3c1,1.7,1.5,3.5,1.5,5.6c0,1.2-0.2,2.4-0.6,3.7c-0.4,1.3-1.1,2.6-2,4c-0.9,1.3-1.9,2.3-2.9,3
			c-1,0.6-2,1-2.8,1c-0.6,0-1.2-0.2-1.6-0.6c-0.4-0.4-0.6-0.9-0.6-1.7c0-0.5,0.1-1.2,0.4-2c0.3-0.8,0.7-1.6,1.3-2.6
			c0.6-0.9,1-1.8,1.3-2.6c0.3-0.8,0.4-1.6,0.4-2.3c0-1.1-0.3-2-0.9-2.8c-0.6-0.8-1.4-1.5-2.4-2c-1-0.5-2.3-1-3.7-1.2
			c-1.4-0.3-3-0.4-4.7-0.4c-1.9,0-3.6,0.2-5,0.7c-1.4,0.4-2.6,1-3.5,1.7c-0.9,0.7-1.6,1.5-2.1,2.3C202.3,27.4,202.1,28.3,202.1,29.1
			z"/>
		<path fill="#545454" d="M246.9,53c0.8-1,1.6-2,2.5-3.2c0.9-1.2,1.8-2.3,2.7-3.3c0.9-1.1,1.7-2,2.4-2.8s1.3-1.4,1.7-1.7
			c0.7-0.5,1.5-0.9,2.4-1.2c1-0.3,2-0.5,3.2-0.5c0.6,0,1.2,0.1,1.7,0.4c0.5,0.3,1,0.7,1.4,1.2s0.7,1.1,1,1.8
			c0.2,0.7,0.3,1.5,0.3,2.4c0,0.9-0.2,1.7-0.6,2.6c-0.4,0.9-1,1.8-1.6,2.7s-1.3,1.8-2.1,2.7c-0.7,0.9-1.4,1.8-2.1,2.7
			c-0.6,0.9-1.2,1.8-1.6,2.7c-0.4,0.9-0.6,1.8-0.6,2.7c0,0.8,0.2,1.3,0.6,1.6c0.4,0.3,0.9,0.5,1.7,0.5c0.4,0,0.9-0.1,1.4-0.4
			c0.5-0.3,1-0.7,1.5-1.1c0.5-0.5,1.1-1,1.6-1.6c0.5-0.6,1.1-1.2,1.6-1.7c0.5-0.6,1-1.2,1.4-1.7c0.4-0.5,0.8-1,1.2-1.4l1.9,7.8
			c-0.7,1-1.5,1.8-2.5,2.6c-1,0.8-2.1,1.5-3.3,2.1c-1.2,0.6-2.4,1.1-3.7,1.4c-1.3,0.3-2.5,0.5-3.6,0.5c-1.5,0-2.8-0.2-3.7-0.6
			c-1-0.4-1.7-0.9-2.3-1.5c-0.6-0.6-0.9-1.3-1.1-2.1c-0.2-0.8-0.3-1.6-0.3-2.4c0-0.5,0.1-1.1,0.2-1.8c0.1-0.7,0.3-1.5,0.7-2.4
			c0.3-0.9,0.8-1.9,1.4-2.9c0.6-1.1,1.4-2.2,2.3-3.4c0.4-0.4,0.7-0.7,1-1c0.3-0.3,0.6-0.6,0.8-0.8c0.2-0.2,0.4-0.5,0.5-0.7
			c0.1-0.2,0.2-0.4,0.2-0.7c0-0.4-0.1-0.8-0.2-1.1c-0.2-0.3-0.4-0.4-0.7-0.4c-0.4,0-0.8,0.2-1.4,0.7c-0.6,0.5-1.2,1.3-1.9,2.4
			l-9.3,16.4c-0.5,0.8-1,1.4-1.5,1.8c-0.5,0.3-1.1,0.5-1.8,0.5c-0.9,0-1.6-0.2-2.2-0.6c-0.5-0.4-0.9-0.9-1.2-1.6
			c-0.3-0.7-0.4-1.4-0.5-2.3c-0.1-0.9-0.1-1.8-0.1-2.8c0-1.2,0-2.8,0.1-4.8c0.1-2,0.2-4.2,0.4-6.6c0.2-2.4,0.4-4.9,0.7-7.5
			c0.3-2.6,0.6-5.1,1-7.6c0.1-0.9,0.3-1.9,0.6-3.2c0.2-1.2,0.5-2.6,0.9-4c0.3-1.4,0.8-2.9,1.2-4.4c0.5-1.5,1-3,1.7-4.5
			c0.6-1.4,1.3-2.8,2.1-4.1c0.8-1.3,1.7-2.5,2.6-3.4c1-1,2-1.8,3.2-2.3c1.2-0.6,2.4-0.9,3.8-0.9c1.1,0,2,0.2,2.7,0.5
			c0.7,0.3,1.3,0.8,1.7,1.5c0.4,0.6,0.7,1.4,0.9,2.2c0.2,0.9,0.3,1.8,0.3,2.8c0,1.8-0.2,3.7-0.7,5.8c-0.5,2.1-1,4.2-1.7,6.2
			c-0.7,2.1-1.5,4.1-2.3,6.1c-0.8,2-1.6,3.7-2.4,5.3s-1.4,2.9-2,4c-0.6,1.1-1,1.8-1.2,2.1l-3.8,5.6L246.9,53z M253.1,17.4
			c-0.7,0-1.3,0.2-1.7,0.6c-0.5,0.4-0.9,1-1.4,1.8c-0.4,0.8-0.9,1.7-1.3,2.9c-0.4,1.1-0.9,2.4-1.5,3.7c-0.3,1.2-0.7,2.5-0.9,3.7
			c-0.3,1.3-0.5,2.6-0.8,3.9c-0.2,1.3-0.4,2.5-0.6,3.8c-0.2,1.2-0.3,2.4-0.5,3.5c-0.3,2.6-0.6,5.2-0.8,7.7c0.5-1.4,1-2.9,1.5-4.6
			c0.5-1.6,1.1-3.3,1.6-4.9c0.5-1.6,1-3.1,1.5-4.5c0.5-1.4,0.9-2.6,1.2-3.6c0.1-0.5,0.4-1,0.6-1.7c0.3-0.7,0.6-1.4,0.9-2.3
			c0.3-0.8,0.6-1.6,1-2.5c0.3-0.9,0.6-1.7,0.9-2.5c0.3-0.8,0.5-1.6,0.7-2.3s0.3-1.3,0.3-1.8C253.8,17.7,253.6,17.4,253.1,17.4z"/>
		<path fill="#545454" d="M287.5,64c-0.8,0.7-1.7,1.4-2.8,2.2c-1.1,0.8-2.4,1.5-3.7,2.2c-1.3,0.7-2.7,1.2-4,1.7
			c-1.4,0.4-2.7,0.7-3.9,0.7c-1.1,0-2-0.2-2.8-0.5s-1.4-0.7-1.8-1.3c-0.5-0.5-0.8-1.2-1-2c-0.2-0.8-0.3-1.7-0.3-2.6
			c0-1.3,0.2-2.9,0.5-4.6c0.3-1.8,0.7-3.6,1.1-5.5s0.9-3.8,1.4-5.7c0.5-1.9,0.9-3.6,1.3-5.2c0.1-0.5,0.4-1,0.9-1.4
			c0.4-0.4,0.9-0.7,1.5-1c0.6-0.2,1.1-0.4,1.7-0.5c0.6-0.1,1.1-0.2,1.6-0.2c0.9,0,1.5,0.2,1.8,0.5c0.3,0.3,0.5,0.8,0.5,1.3
			c0,0.5-0.1,1.1-0.3,2c-0.2,0.9-0.5,1.9-0.8,3c-0.3,1.1-0.7,2.3-1,3.6c-0.4,1.3-0.7,2.6-1,3.8c-0.3,1.3-0.6,2.5-0.8,3.7
			c-0.2,1.2-0.3,2.3-0.3,3.3c0,1,0.1,1.7,0.3,2.3c0.2,0.6,0.6,0.8,1.3,0.8c0.8,0,1.6-0.3,2.5-0.8c0.9-0.5,1.9-1.2,2.8-1.9
			c1-0.8,1.9-1.5,2.8-2.3c0.9-0.8,1.7-1.5,2.4-2.1V64z M273.3,31.4c0-0.5,0.1-1,0.3-1.7c0.2-0.6,0.6-1.2,1-1.7
			c0.5-0.5,1.1-1,1.9-1.4c0.8-0.4,1.8-0.6,3-0.6c0.7,0,1.4,0.1,2.1,0.3c0.7,0.2,1.2,0.4,1.7,0.8c0.5,0.3,0.9,0.8,1.2,1.4
			c0.3,0.6,0.4,1.2,0.4,2c0,0.7-0.1,1.4-0.3,2.1c-0.2,0.7-0.6,1.3-1.1,1.8c-0.5,0.5-1.1,1-1.9,1.3s-1.7,0.5-2.8,0.5
			c-1.9,0-3.2-0.4-4.1-1.3S273.3,32.8,273.3,31.4z"/>
		<path fill="#545454" d="M298.4,64.8c0-0.3,0-0.7,0.1-1.2c0-0.5,0.1-1.1,0.2-1.7c0.1-0.7,0.2-1.3,0.3-2.1c0.1-0.7,0.2-1.5,0.3-2.2
			c0.2-1.7,0.5-3.5,0.9-5.5h-0.5c-0.3,0.3-0.5,0.8-0.9,1.4c-0.3,0.6-0.8,1.6-1.4,2.8c-0.6,1.2-1.3,2.8-2.3,4.8
			c-0.9,2-2.1,4.4-3.6,7.3c-0.4,0.9-0.9,1.5-1.5,1.8c-0.6,0.3-1.2,0.5-1.9,0.5c-0.9,0-1.6-0.2-2.1-0.6c-0.5-0.4-0.9-0.9-1.2-1.5
			c-0.3-0.6-0.5-1.3-0.6-2.1c-0.1-0.8-0.1-1.6-0.1-2.5c0-0.9,0.1-1.9,0.2-3.1c0.1-1.2,0.2-2.4,0.4-3.7c0.2-1.3,0.4-2.7,0.6-4
			c0.2-1.4,0.5-2.7,0.7-3.9c0.2-1.2,0.5-2.4,0.7-3.4c0.3-1,0.5-1.9,0.7-2.5c0.2-0.7,0.4-1.2,0.6-1.6c0.2-0.4,0.4-0.7,0.7-0.9
			c0.2-0.2,0.5-0.4,0.9-0.4c0.3-0.1,0.8-0.1,1.3-0.1c0.8,0,1.4,0,1.9,0.1c0.5,0.1,0.8,0.2,1,0.4c0.2,0.2,0.4,0.5,0.4,0.9
			c0,0.4,0.1,0.9,0.1,1.6c0,0.4,0,0.8,0,1.2c0,0.5-0.1,1-0.1,1.5c-0.1,0.5-0.1,1.1-0.2,1.6c-0.1,0.6-0.2,1.1-0.2,1.6
			c-0.2,1.2-0.4,2.5-0.6,3.9l0.3,0.4c0-0.1,0.3-0.5,0.7-1.2c0.4-0.7,0.9-1.6,1.5-2.7c0.6-1,1.3-2.1,2-3.3c0.7-1.1,1.4-2.1,2-3
			c0.6-0.9,1.3-1.6,2-2.2c0.7-0.6,1.5-0.9,2.5-0.9c0.9,0,1.7,0.3,2.3,0.8c0.6,0.5,1,1.3,1,2.2c0,0.8-0.1,1.6-0.2,2.3
			c-0.1,0.7-0.2,1.5-0.4,2.2c-0.2,0.7-0.3,1.4-0.5,2c-0.2,0.7-0.3,1.3-0.5,2c-0.1,0.5-0.2,0.8-0.2,0.9c0,0.1,0,0.2,0,0.3l0.3,0.4
			c0-0.1,0.3-0.5,0.7-1.2c0.4-0.7,1-1.6,1.6-2.6c0.6-1,1.3-2.1,2.1-3.3c0.7-1.1,1.4-2.1,2-3c0.6-0.8,1.2-1.6,1.8-2.1
			c0.6-0.6,1.4-0.9,2.3-0.9c1,0,1.8,0.3,2.5,0.8c0.7,0.5,1,1.3,1,2.2c0,1.5-0.1,2.8-0.2,4.2c-0.1,1.3-0.3,2.6-0.5,3.9
			c-0.2,1.3-0.4,2.6-0.5,3.9c-0.1,1.3-0.2,2.7-0.2,4.1c0,1.1,0.1,2.1,0.4,2.8c0.3,0.7,0.7,1.1,1.1,1.1c0.4,0,0.9-0.1,1.4-0.3
			c0.5-0.2,1-0.4,1.5-0.7c0.5-0.3,1-0.6,1.5-1c0.5-0.4,1-0.8,1.4-1.2c1-1,2.1-2.1,3.1-3.3l0.5,7.5c-0.9,0.7-1.9,1.5-2.8,2.3
			c-0.9,0.8-1.9,1.5-2.9,2.2c-1,0.6-2.2,1.2-3.4,1.6c-1.2,0.4-2.6,0.6-4.2,0.6c-0.8,0-1.4-0.2-1.9-0.7c-0.5-0.5-0.9-1.2-1.3-2.1
			c-0.3-0.9-0.5-1.9-0.7-3.1c-0.1-1.2-0.2-2.5-0.2-3.9c0-1.3,0-2.7,0.1-4.2c0.1-1.5,0.2-3,0.4-4.5h-0.5l-6.4,16.4
			c-0.6,0.9-1.2,1.5-1.8,1.8c-0.7,0.3-1.5,0.5-2.3,0.5c-0.7,0-1.2-0.2-1.6-0.6c-0.4-0.4-0.7-0.8-0.9-1.4c-0.2-0.6-0.4-1.2-0.4-1.9
			C298.5,66.1,298.4,65.5,298.4,64.8z"/>
		<path fill="#545454" d="M340.7,55.1c-0.6,2.3-1.3,4.4-2.2,6.3s-1.7,3.6-2.7,5s-1.9,2.5-3,3.2s-2,1.2-3,1.2c-1.7,0-2.9-1.2-3.6-3.6
			c-0.8-2.4-1.2-6-1.2-10.8c0-0.7,0-1.3,0-1.8c0-0.5,0-1,0-1.6c0-0.5,0.1-1.1,0.1-1.7c0-0.6,0.1-1.3,0.2-2.2c0-0.2,0.1-0.6,0.1-1.1
			c0.1-0.5,0.2-1.1,0.3-1.8c0.2-0.7,0.4-1.3,0.6-2s0.6-1.4,1-1.9c0.4-0.6,0.9-1.1,1.5-1.4s1.2-0.6,2-0.6l0.8,0.1
			c0.9,0,1.6,0.2,2.1,0.6c0.5,0.4,0.7,0.9,0.7,1.5l-2.2,17.2l0.4,0c0.9-2.2,1.7-4.1,2.4-5.9c0.7-1.8,1.3-3.4,1.9-4.8
			c0.6-1.4,1.1-2.7,1.7-3.7c0.5-1.1,1.1-1.9,1.8-2.6s1.3-1.2,2.1-1.6c0.8-0.3,1.7-0.5,2.8-0.5c0.9,0,1.6,0.2,2.1,0.6
			c0.5,0.4,0.7,0.9,0.7,1.5l-2.6,17.2l0.4,0l7.6-16.9c0.3-0.6,0.8-1.1,1.7-1.6c0.8-0.5,1.9-0.7,3-0.7c1.2,0,2.2,0.2,2.9,0.7
			c0.7,0.5,1.1,1.1,1.1,1.9c0,0.6-0.1,1.2-0.3,1.9c-0.2,0.7-0.4,1.3-0.7,1.9c-0.2,0.6-0.5,1.1-0.7,1.5c-0.2,0.4-0.3,0.6-0.3,0.7
			c-0.5,0.8-0.9,1.6-1.3,2.3c-0.4,0.7-0.7,1.4-1,1.9c-0.4,0.6-0.7,1.2-1,1.8c0.3,0.8,0.7,1.6,1.1,2.2c0.4,0.6,0.9,1.1,1.5,1.5
			c0.6,0.5,1.3,0.7,2.1,0.7c0.7,0,1.5-0.2,2.4-0.6c0.9-0.4,1.8-0.8,2.6-1.3c1-0.5,1.9-1.1,2.9-1.8v7.5c-1.4,0.9-2.8,1.6-4.3,2.1
			c-1.5,0.5-2.9,0.8-4.3,0.8c-1.1,0-2.1-0.1-3.1-0.4c-1-0.3-1.8-0.7-2.5-1.2c-0.7-0.5-1.3-1.3-1.7-2.1s-0.7-1.9-0.7-3.2
			c-0.7,1.7-1.5,3.2-2.3,4.6c-0.8,1.4-1.6,2.6-2.4,3.6s-1.7,1.8-2.5,2.4c-0.8,0.6-1.7,0.9-2.5,0.9c-0.3,0-0.6-0.2-0.8-0.7
			c-0.2-0.5-0.4-1.1-0.6-1.8c-0.1-0.8-0.3-1.7-0.4-2.7c-0.1-1-0.2-2.1-0.2-3.3s-0.1-2.3-0.1-3.5c0-1.2,0-2.4,0-3.5L340.7,55.1z"/>
		<path fill="#545454" d="M387.6,47c0.6,1.2,1.1,2.5,1.4,3.9c0.3,1.4,0.5,2.7,0.5,3.9c0,1.2-0.1,2.5-0.4,3.8
			c-0.3,1.3-0.7,2.5-1.2,3.7c-0.5,1.2-1.2,2.3-1.9,3.3c-0.8,1-1.6,1.9-2.6,2.7s-2,1.4-3.2,1.8s-2.4,0.7-3.6,0.7
			c-1.9,0-3.5-0.4-4.8-1.2c-1.3-0.8-2.4-1.9-3.3-3.2c-0.8-1.3-1.5-2.8-1.9-4.4s-0.6-3.3-0.6-5c0-2.3,0.3-4.5,1-6.5
			c0.7-2,1.7-3.8,3-5.3c1.3-1.5,2.9-2.7,4.8-3.5c1.9-0.9,4-1.3,6.3-1.3c2,0,3.9,0.3,5.6,0.9c1.8,0.6,3.4,1.5,4.9,2.5
			c1.5,1,3,2.2,4.3,3.6c1.3,1.4,2.6,2.8,3.7,4.2l-0.6,4.5c-0.6-0.8-1.3-1.6-2.3-2.5c-1-0.9-2-1.8-3.1-2.6c-1.1-0.8-2.2-1.6-3.2-2.4
			c-1.1-0.8-2-1.4-2.7-1.9L387.6,47z M377.8,64.7c0.7,0,1.4-0.4,2.1-1.1c0.7-0.7,1.3-1.7,1.8-2.8c0.5-1.1,0.9-2.3,1.2-3.7
			c0.3-1.3,0.5-2.6,0.5-3.9c0-1-0.1-1.9-0.2-2.7c-0.1-0.8-0.4-1.6-0.7-2.2c-0.3-0.6-0.7-1.1-1.1-1.5c-0.5-0.4-1-0.5-1.7-0.5
			c-0.9,0-1.7,0.4-2.5,1.1c-0.8,0.7-1.5,1.7-2.1,2.8c-0.6,1.2-1.1,2.4-1.4,3.8c-0.3,1.4-0.5,2.7-0.5,4c0,0.9,0.1,1.7,0.3,2.5
			c0.2,0.8,0.4,1.5,0.8,2c0.4,0.6,0.8,1,1.4,1.4C376.3,64.5,377,64.7,377.8,64.7z"/>
		<path fill="#545454" d="M395.9,64.1c0-0.9,0.1-2,0.2-3.3c0.1-1.2,0.2-2.5,0.4-3.9c0.2-1.4,0.4-2.8,0.6-4.2
			c0.2-1.4,0.5-2.8,0.8-4.1c0.3-1.3,0.5-2.5,0.8-3.6c0.3-1.1,0.6-2,0.8-2.7c0.2-0.5,0.3-0.8,0.5-1.1c0.2-0.3,0.4-0.5,0.6-0.7
			c0.2-0.2,0.5-0.3,0.8-0.3c0.3-0.1,0.7-0.1,1.2-0.1c0.5,0,1,0,1.3,0.1c0.3,0.1,0.5,0.2,0.7,0.4c0.1,0.2,0.2,0.5,0.3,0.9
			c0,0.4,0,0.9,0,1.6c0,0.8,0,1.7,0,2.8c0,1.1,0,2.2,0.1,3.3h0.3c0.4-0.8,0.9-1.8,1.4-2.8c0.5-1,1.1-2,1.8-2.9
			c0.7-0.9,1.5-1.7,2.4-2.3s1.9-0.9,3.1-0.9c0.4,0,0.8,0.1,1.2,0.2c0.4,0.1,0.7,0.3,1,0.6c0.3,0.3,0.5,0.6,0.7,0.9
			c0.2,0.4,0.3,0.8,0.3,1.3c0,0.4-0.1,0.9-0.2,1.5c-0.1,0.6-0.2,1.3-0.3,2s-0.2,1.4-0.3,2.1c-0.1,0.7-0.2,1.2-0.2,1.7
			c0,0.8,0.1,1.4,0.2,1.9c0.1,0.5,0.3,0.9,0.6,1.2c0.2,0.3,0.5,0.5,0.8,0.7c0.3,0.1,0.6,0.2,1,0.2c1,0,1.9-0.2,3-0.6
			c1-0.4,1.9-0.9,2.8-1.4c1-0.6,2-1.3,2.9-2.1l-0.5,7.4c-0.6,0.4-1.2,0.8-1.9,1.2c-0.7,0.4-1.4,0.9-2.2,1.3c-0.8,0.4-1.6,0.7-2.5,1
			c-0.9,0.3-1.7,0.4-2.6,0.4c-1.6,0-2.9-0.3-3.8-1c-1-0.6-1.7-1.5-2.3-2.5c-0.6-1-1-2.2-1.3-3.5c-0.3-1.3-0.5-2.6-0.7-4h-0.5
			l-5.7,15.8c-0.3,0.8-0.6,1.5-0.8,2c-0.3,0.5-0.5,1-0.8,1.3c-0.3,0.3-0.6,0.6-0.9,0.7s-0.7,0.2-1,0.2c-0.9,0-1.6-0.2-2.1-0.6
			c-0.5-0.4-0.9-0.9-1.2-1.5c-0.3-0.6-0.5-1.3-0.6-2.1C395.9,65.8,395.9,65,395.9,64.1z"/>
		<path fill="#545454" d="M459.1,64.5c-1.5,1.2-3,2.2-4.4,3.1c-0.6,0.4-1.3,0.8-1.9,1.1c-0.7,0.4-1.3,0.7-2,1
			c-0.7,0.3-1.3,0.5-1.9,0.7c-0.6,0.2-1.2,0.3-1.7,0.3c-0.3,0-0.7-0.1-1.3-0.2c-0.6-0.1-1.2-0.4-1.9-0.8c-0.7-0.4-1.4-1-2.1-1.7
			c-0.7-0.7-1.3-1.7-1.8-3c-0.8,0.8-1.6,1.5-2.5,2.2c-0.9,0.7-1.8,1.3-2.7,1.8c-0.9,0.5-1.9,0.9-2.9,1.2c-1,0.3-1.9,0.5-2.9,0.5
			c-1.4,0-2.6-0.3-3.6-0.9c-1-0.6-1.8-1.4-2.5-2.4c-0.7-1-1.2-2.1-1.5-3.3c-0.3-1.2-0.5-2.5-0.5-3.9c0-1.4,0.2-2.7,0.5-4.1
			c0.3-1.4,0.9-2.7,1.5-4c0.7-1.3,1.5-2.5,2.4-3.7c1-1.2,2-2.2,3.2-3.1c1.2-0.9,2.5-1.6,3.9-2.2c1.4-0.6,2.9-1,4.5-1.1
			c0.1-2.7,0.3-5.4,0.7-8c0.4-2.6,1-5.2,1.7-7.6c0.7-2.4,1.5-4.6,2.5-6.6c0.9-2,2-3.8,3.1-5.3c1.1-1.5,2.3-2.6,3.6-3.5
			s2.6-1.3,3.9-1.3c1,0,1.8,0.3,2.5,0.8c0.7,0.5,1.3,1.2,1.7,2.1c0.4,0.9,0.7,1.9,0.9,3c0.2,1.1,0.3,2.3,0.3,3.5
			c0,0.7,0,1.5-0.1,2.3c-0.3,3-0.8,5.8-1.5,8.5c-0.7,2.7-1.6,5.2-2.6,7.8c-1,2.5-2.1,5-3.2,7.5c-1.2,2.5-2.3,5-3.4,7.7
			c-0.1,0.3-0.2,0.7-0.3,1.1c-0.1,0.4-0.2,0.9-0.3,1.4c-0.1,0.5-0.2,1-0.2,1.5c-0.1,0.5-0.1,1-0.1,1.5c0,0.6,0,1.2,0.1,1.7
			c0.1,0.6,0.2,1,0.4,1.5c0.2,0.4,0.4,0.8,0.7,1c0.3,0.3,0.6,0.4,1.1,0.4c0.4,0,0.8-0.1,1.3-0.2c0.5-0.2,1-0.4,1.5-0.7
			c0.5-0.3,1.1-0.6,1.6-0.9c0.5-0.3,1.1-0.7,1.6-1.1c1.2-0.8,2.4-1.8,3.6-2.9L459.1,64.5z M437.2,46.8c-1.4,0.7-2.6,1.6-3.7,2.7
			c-1.1,1.1-2,2.3-2.7,3.6c-0.7,1.3-1.3,2.6-1.7,3.9c-0.4,1.3-0.6,2.5-0.6,3.6c0,0.4,0,0.8,0.1,1.3c0.1,0.4,0.3,0.8,0.5,1.1
			c0.3,0.3,0.6,0.6,1.1,0.8c0.5,0.2,1.1,0.3,1.8,0.3c0.4,0,0.8-0.1,1.1-0.3c0.4-0.2,0.7-0.4,1.1-0.7c0.3-0.3,0.7-0.7,1-1
			c0.3-0.4,0.6-0.8,0.8-1.2c0.6-1,1.1-2.1,1.6-3.3c-0.1-0.3-0.1-0.8-0.2-1.4c0-0.6-0.1-1.4-0.1-2.2c0-0.8,0-1.6-0.1-2.5
			c0-0.8,0-1.6,0-2.3c0-0.7,0-1.3,0-1.7C437.3,46.9,437.3,46.7,437.2,46.8z M452.2,23.7c0.1-1.5,0.2-2.7,0.2-3.5
			c0-1.1-0.1-1.9-0.3-2.4s-0.5-0.7-0.9-0.7c-0.7,0-1.3,0.4-1.8,1.3c-0.5,0.9-1,2-1.5,3.3c-0.4,1.3-0.8,2.8-1.1,4.4
			c-0.3,1.6-0.6,3.2-0.8,4.7c-0.2,1.5-0.4,2.9-0.5,4.1s-0.2,2.1-0.3,2.6c-0.1,1-0.2,2-0.2,3s-0.1,1.8-0.1,2.6c0,0.8,0,1.5,0,2.1
			c0,0.6,0,1,0,1.4v0.3c1.2-2.8,2.3-5.5,3.3-8.2c0.4-1.2,0.9-2.4,1.3-3.7c0.4-1.3,0.8-2.6,1.2-3.9c0.4-1.3,0.7-2.6,0.9-3.8
			C451.9,26,452,24.9,452.2,23.7z"/>
	</g>
	<path display="inline" fill="#F3AB2B" d="M449.7,91.6h-115c-1.3,0-2.4-1.1-2.4-2.4l0,0c0-1.3,1.1-2.4,2.4-2.4h115
		c1.3,0,2.4,1.1,2.4,2.4l0,0C452.1,90.6,451,91.6,449.7,91.6z"/>
</g>
<g id="Layer_3" display="none">
	<path display="inline" fill="#F27C7C" d="M149.6,88.2H8.7c-4.8,0-8.7-3.9-8.7-8.7V12c0-4.8,3.9-8.7,8.7-8.7h140.8
		c4.8,0,8.7,3.9,8.7,8.7v67.6C158.3,84.3,154.4,88.2,149.6,88.2z"/>
	<rect x="117.3" y="73.3" display="inline" fill="#FFFFFF" width="0.1" height="1.9"/>
	<rect x="121.1" y="73.3" display="inline" fill="#FFFFFF" width="0.3" height="1.9"/>
	<rect x="117.3" y="73.3" display="inline" fill="#FFFFFF" width="0.1" height="1.9"/>
	<rect x="121.1" y="73.3" display="inline" fill="#FFFFFF" width="0.3" height="1.9"/>
	<rect x="117.3" y="17.7" display="inline" fill="#FFFFFF" width="0.1" height="0.5"/>
	<rect x="117.3" y="73.3" display="inline" fill="#FFFFFF" width="0.1" height="2"/>
	<rect x="121.1" y="73.3" display="inline" fill="#FFFFFF" width="0.3" height="2"/>
	<path display="inline" fill="#FFFFFF" d="M132.3,21.2v50c0,1.1,0.9,2,2,2h9c1.1,0,2,0.9,2,2v2c0,1.1-0.9,2-2,2h-10
		c-1.1,0-2-0.9-2-2l0,0c0-1.1-0.9-2-2-2l0,0c-1.1,0-2,0.9-2,2l0,0c0,1.1-0.9,2-2,2h-10c-1.1,0-2-0.9-2-2v-2c0-1.1,0.9-2,2-2h9
		c1.1,0,2-0.9,2-2v-50c0-1.1-0.9-2-2-2h-9c-1.1,0-2-0.9-2-2v-2c0-1.1,0.9-2,2-2h10c1.1,0,2,0.9,2,2v1c0,1.1,0.9,2,2,2l0,0
		c1.1,0,2-0.9,2-2v-1c0-1.1,0.9-2,2-2h10c1.1,0,2,0.9,2,2v2c0,1.1-0.9,2-2,2h-9C133.2,19.2,132.3,20.1,132.3,21.2z"/>
	<rect x="117.3" y="73.3" display="inline" fill="#FFFFFF" width="0.1" height="1.9"/>
	<rect x="121.1" y="73.3" display="inline" fill="#FFFFFF" width="0.3" height="1.9"/>
	<g display="inline">
		<path fill="#545454" d="M202.1,29.1c0,1.4,0.4,2.6,1.2,3.7c0.8,1.1,1.9,2.1,3.2,3.1c1.3,0.9,2.9,1.8,4.6,2.7
			c1.7,0.8,3.4,1.7,5.2,2.6s3.5,1.9,5.2,2.9c1.7,1,3.2,2.2,4.6,3.5c1.3,1.3,2.4,2.8,3.2,4.4c0.8,1.6,1.2,3.5,1.2,5.6
			c0,1.9-0.3,3.7-0.9,5.3c-0.6,1.6-1.5,3-2.5,4.3c-1.1,1.3-2.3,2.4-3.8,3.4s-3,1.8-4.7,2.4c-1.7,0.6-3.5,1.1-5.3,1.4
			c-1.9,0.3-3.7,0.5-5.6,0.5c-2.6,0-5.2-0.3-7.7-1c-2.5-0.6-4.7-1.6-6.7-2.9c-1.9-1.3-3.5-2.9-4.7-4.9c-1.2-2-1.8-4.2-1.8-6.9
			c0-1.4,0.2-2.5,0.7-3.6c0.4-1,1-1.9,1.6-2.6c0.6-0.7,1.3-1.2,2.1-1.6c0.8-0.3,1.5-0.5,2.1-0.5c0.7,0,1.2,0.2,1.7,0.6
			s0.7,0.9,0.7,1.7c0,0.4,0,0.7-0.1,1.1c-0.1,0.4-0.2,0.8-0.3,1.3c-0.1,0.5-0.2,1-0.3,1.6c-0.1,0.6-0.1,1.2-0.1,1.9
			c0,1.5,0.3,2.8,1,3.8c0.7,1.1,1.6,2,2.7,2.7c1.1,0.7,2.4,1.2,3.9,1.6c1.5,0.3,3,0.5,4.5,0.5c1.8,0,3.7-0.2,5.5-0.7s3.5-1.1,5-2
			c1.5-0.9,2.6-1.9,3.6-3.2c0.9-1.3,1.4-2.7,1.4-4.3c0-1.5-0.4-2.8-1.2-4c-0.8-1.2-1.9-2.3-3.2-3.3c-1.3-1-2.9-2-4.6-2.8
			s-3.5-1.8-5.2-2.7c-1.8-0.9-3.5-1.9-5.2-2.9c-1.7-1-3.2-2.1-4.6-3.3s-2.4-2.6-3.2-4c-0.8-1.5-1.2-3.2-1.2-5.1
			c0-1.8,0.4-3.5,1.3-5.3c0.9-1.7,2.1-3.3,3.9-4.6c1.7-1.4,3.9-2.5,6.5-3.3c2.6-0.8,5.6-1.3,9.1-1.3c2.2,0,4.4,0.3,6.5,1
			c2.1,0.7,4,1.6,5.6,2.8s3,2.6,4,4.3c1,1.7,1.5,3.5,1.5,5.6c0,1.2-0.2,2.4-0.6,3.7c-0.4,1.3-1.1,2.6-2,4c-0.9,1.3-1.9,2.3-2.9,3
			c-1,0.6-2,1-2.8,1c-0.6,0-1.2-0.2-1.6-0.6c-0.4-0.4-0.6-0.9-0.6-1.7c0-0.5,0.1-1.2,0.4-2c0.3-0.8,0.7-1.6,1.3-2.6
			c0.6-0.9,1-1.8,1.3-2.6c0.3-0.8,0.4-1.6,0.4-2.3c0-1.1-0.3-2-0.9-2.8c-0.6-0.8-1.4-1.5-2.4-2c-1-0.5-2.3-1-3.7-1.2
			c-1.4-0.3-3-0.4-4.7-0.4c-1.9,0-3.6,0.2-5,0.7c-1.4,0.4-2.6,1-3.5,1.7c-0.9,0.7-1.6,1.5-2.1,2.3C202.3,27.4,202.1,28.3,202.1,29.1
			z"/>
		<path fill="#545454" d="M246.9,53c0.8-1,1.6-2,2.5-3.2c0.9-1.2,1.8-2.3,2.7-3.3c0.9-1.1,1.7-2,2.4-2.8s1.3-1.4,1.7-1.7
			c0.7-0.5,1.5-0.9,2.4-1.2c1-0.3,2-0.5,3.2-0.5c0.6,0,1.2,0.1,1.7,0.4c0.5,0.3,1,0.7,1.4,1.2s0.7,1.1,1,1.8
			c0.2,0.7,0.3,1.5,0.3,2.4c0,0.9-0.2,1.7-0.6,2.6c-0.4,0.9-1,1.8-1.6,2.7s-1.3,1.8-2.1,2.7c-0.7,0.9-1.4,1.8-2.1,2.7
			c-0.6,0.9-1.2,1.8-1.6,2.7c-0.4,0.9-0.6,1.8-0.6,2.7c0,0.8,0.2,1.3,0.6,1.6c0.4,0.3,0.9,0.5,1.7,0.5c0.4,0,0.9-0.1,1.4-0.4
			c0.5-0.3,1-0.7,1.5-1.1c0.5-0.5,1.1-1,1.6-1.6c0.5-0.6,1.1-1.2,1.6-1.7c0.5-0.6,1-1.2,1.4-1.7c0.4-0.5,0.8-1,1.2-1.4l1.9,7.8
			c-0.7,1-1.5,1.8-2.5,2.6c-1,0.8-2.1,1.5-3.3,2.1c-1.2,0.6-2.4,1.1-3.7,1.4c-1.3,0.3-2.5,0.5-3.6,0.5c-1.5,0-2.8-0.2-3.7-0.6
			c-1-0.4-1.7-0.9-2.3-1.5c-0.6-0.6-0.9-1.3-1.1-2.1c-0.2-0.8-0.3-1.6-0.3-2.4c0-0.5,0.1-1.1,0.2-1.8c0.1-0.7,0.3-1.5,0.7-2.4
			c0.3-0.9,0.8-1.9,1.4-2.9c0.6-1.1,1.4-2.2,2.3-3.4c0.4-0.4,0.7-0.7,1-1c0.3-0.3,0.6-0.6,0.8-0.8c0.2-0.2,0.4-0.5,0.5-0.7
			c0.1-0.2,0.2-0.4,0.2-0.7c0-0.4-0.1-0.8-0.2-1.1c-0.2-0.3-0.4-0.4-0.7-0.4c-0.4,0-0.8,0.2-1.4,0.7c-0.6,0.5-1.2,1.3-1.9,2.4
			l-9.3,16.4c-0.5,0.8-1,1.4-1.5,1.8c-0.5,0.3-1.1,0.5-1.8,0.5c-0.9,0-1.6-0.2-2.2-0.6c-0.5-0.4-0.9-0.9-1.2-1.6
			c-0.3-0.7-0.4-1.4-0.5-2.3c-0.1-0.9-0.1-1.8-0.1-2.8c0-1.2,0-2.8,0.1-4.8c0.1-2,0.2-4.2,0.4-6.6c0.2-2.4,0.4-4.9,0.7-7.5
			c0.3-2.6,0.6-5.1,1-7.6c0.1-0.9,0.3-1.9,0.6-3.2c0.2-1.2,0.5-2.6,0.9-4c0.3-1.4,0.8-2.9,1.2-4.4c0.5-1.5,1-3,1.7-4.5
			c0.6-1.4,1.3-2.8,2.1-4.1c0.8-1.3,1.7-2.5,2.6-3.4c1-1,2-1.8,3.2-2.3c1.2-0.6,2.4-0.9,3.8-0.9c1.1,0,2,0.2,2.7,0.5
			c0.7,0.3,1.3,0.8,1.7,1.5c0.4,0.6,0.7,1.4,0.9,2.2c0.2,0.9,0.3,1.8,0.3,2.8c0,1.8-0.2,3.7-0.7,5.8c-0.5,2.1-1,4.2-1.7,6.2
			c-0.7,2.1-1.5,4.1-2.3,6.1c-0.8,2-1.6,3.7-2.4,5.3s-1.4,2.9-2,4c-0.6,1.1-1,1.8-1.2,2.1l-3.8,5.6L246.9,53z M253.1,17.4
			c-0.7,0-1.3,0.2-1.7,0.6c-0.5,0.4-0.9,1-1.4,1.8c-0.4,0.8-0.9,1.7-1.3,2.9c-0.4,1.1-0.9,2.4-1.5,3.7c-0.3,1.2-0.7,2.5-0.9,3.7
			c-0.3,1.3-0.5,2.6-0.8,3.9c-0.2,1.3-0.4,2.5-0.6,3.8c-0.2,1.2-0.3,2.4-0.5,3.5c-0.3,2.6-0.6,5.2-0.8,7.7c0.5-1.4,1-2.9,1.5-4.6
			c0.5-1.6,1.1-3.3,1.6-4.9c0.5-1.6,1-3.1,1.5-4.5c0.5-1.4,0.9-2.6,1.2-3.6c0.1-0.5,0.4-1,0.6-1.7c0.3-0.7,0.6-1.4,0.9-2.3
			c0.3-0.8,0.6-1.6,1-2.5c0.3-0.9,0.6-1.7,0.9-2.5c0.3-0.8,0.5-1.6,0.7-2.3s0.3-1.3,0.3-1.8C253.8,17.7,253.6,17.4,253.1,17.4z"/>
		<path fill="#545454" d="M287.5,64c-0.8,0.7-1.7,1.4-2.8,2.2c-1.1,0.8-2.4,1.5-3.7,2.2c-1.3,0.7-2.7,1.2-4,1.7
			c-1.4,0.4-2.7,0.7-3.9,0.7c-1.1,0-2-0.2-2.8-0.5s-1.4-0.7-1.8-1.3c-0.5-0.5-0.8-1.2-1-2c-0.2-0.8-0.3-1.7-0.3-2.6
			c0-1.3,0.2-2.9,0.5-4.6c0.3-1.8,0.7-3.6,1.1-5.5s0.9-3.8,1.4-5.7c0.5-1.9,0.9-3.6,1.3-5.2c0.1-0.5,0.4-1,0.9-1.4
			c0.4-0.4,0.9-0.7,1.5-1c0.6-0.2,1.1-0.4,1.7-0.5c0.6-0.1,1.1-0.2,1.6-0.2c0.9,0,1.5,0.2,1.8,0.5c0.3,0.3,0.5,0.8,0.5,1.3
			c0,0.5-0.1,1.1-0.3,2c-0.2,0.9-0.5,1.9-0.8,3c-0.3,1.1-0.7,2.3-1,3.6c-0.4,1.3-0.7,2.6-1,3.8c-0.3,1.3-0.6,2.5-0.8,3.7
			c-0.2,1.2-0.3,2.3-0.3,3.3c0,1,0.1,1.7,0.3,2.3c0.2,0.6,0.6,0.8,1.3,0.8c0.8,0,1.6-0.3,2.5-0.8c0.9-0.5,1.9-1.2,2.8-1.9
			c1-0.8,1.9-1.5,2.8-2.3c0.9-0.8,1.7-1.5,2.4-2.1V64z M273.3,31.4c0-0.5,0.1-1,0.3-1.7c0.2-0.6,0.6-1.2,1-1.7
			c0.5-0.5,1.1-1,1.9-1.4c0.8-0.4,1.8-0.6,3-0.6c0.7,0,1.4,0.1,2.1,0.3c0.7,0.2,1.2,0.4,1.7,0.8c0.5,0.3,0.9,0.8,1.2,1.4
			c0.3,0.6,0.4,1.2,0.4,2c0,0.7-0.1,1.4-0.3,2.1c-0.2,0.7-0.6,1.3-1.1,1.8c-0.5,0.5-1.1,1-1.9,1.3s-1.7,0.5-2.8,0.5
			c-1.9,0-3.2-0.4-4.1-1.3S273.3,32.8,273.3,31.4z"/>
		<path fill="#545454" d="M298.4,64.8c0-0.3,0-0.7,0.1-1.2c0-0.5,0.1-1.1,0.2-1.7c0.1-0.7,0.2-1.3,0.3-2.1c0.1-0.7,0.2-1.5,0.3-2.2
			c0.2-1.7,0.5-3.5,0.9-5.5h-0.5c-0.3,0.3-0.5,0.8-0.9,1.4c-0.3,0.6-0.8,1.6-1.4,2.8c-0.6,1.2-1.3,2.8-2.3,4.8
			c-0.9,2-2.1,4.4-3.6,7.3c-0.4,0.9-0.9,1.5-1.5,1.8c-0.6,0.3-1.2,0.5-1.9,0.5c-0.9,0-1.6-0.2-2.1-0.6c-0.5-0.4-0.9-0.9-1.2-1.5
			c-0.3-0.6-0.5-1.3-0.6-2.1c-0.1-0.8-0.1-1.6-0.1-2.5c0-0.9,0.1-1.9,0.2-3.1c0.1-1.2,0.2-2.4,0.4-3.7c0.2-1.3,0.4-2.7,0.6-4
			c0.2-1.4,0.5-2.7,0.7-3.9c0.2-1.2,0.5-2.4,0.7-3.4c0.3-1,0.5-1.9,0.7-2.5c0.2-0.7,0.4-1.2,0.6-1.6c0.2-0.4,0.4-0.7,0.7-0.9
			c0.2-0.2,0.5-0.4,0.9-0.4c0.3-0.1,0.8-0.1,1.3-0.1c0.8,0,1.4,0,1.9,0.1c0.5,0.1,0.8,0.2,1,0.4c0.2,0.2,0.4,0.5,0.4,0.9
			c0,0.4,0.1,0.9,0.1,1.6c0,0.4,0,0.8,0,1.2c0,0.5-0.1,1-0.1,1.5c-0.1,0.5-0.1,1.1-0.2,1.6c-0.1,0.6-0.2,1.1-0.2,1.6
			c-0.2,1.2-0.4,2.5-0.6,3.9l0.3,0.4c0-0.1,0.3-0.5,0.7-1.2c0.4-0.7,0.9-1.6,1.5-2.7c0.6-1,1.3-2.1,2-3.3c0.7-1.1,1.4-2.1,2-3
			c0.6-0.9,1.3-1.6,2-2.2c0.7-0.6,1.5-0.9,2.5-0.9c0.9,0,1.7,0.3,2.3,0.8c0.6,0.5,1,1.3,1,2.2c0,0.8-0.1,1.6-0.2,2.3
			c-0.1,0.7-0.2,1.5-0.4,2.2c-0.2,0.7-0.3,1.4-0.5,2c-0.2,0.7-0.3,1.3-0.5,2c-0.1,0.5-0.2,0.8-0.2,0.9c0,0.1,0,0.2,0,0.3l0.3,0.4
			c0-0.1,0.3-0.5,0.7-1.2c0.4-0.7,1-1.6,1.6-2.6c0.6-1,1.3-2.1,2.1-3.3c0.7-1.1,1.4-2.1,2-3c0.6-0.8,1.2-1.6,1.8-2.1
			c0.6-0.6,1.4-0.9,2.3-0.9c1,0,1.8,0.3,2.5,0.8c0.7,0.5,1,1.3,1,2.2c0,1.5-0.1,2.8-0.2,4.2c-0.1,1.3-0.3,2.6-0.5,3.9
			c-0.2,1.3-0.4,2.6-0.5,3.9c-0.1,1.3-0.2,2.7-0.2,4.1c0,1.1,0.1,2.1,0.4,2.8c0.3,0.7,0.7,1.1,1.1,1.1c0.4,0,0.9-0.1,1.4-0.3
			c0.5-0.2,1-0.4,1.5-0.7c0.5-0.3,1-0.6,1.5-1c0.5-0.4,1-0.8,1.4-1.2c1-1,2.1-2.1,3.1-3.3l0.5,7.5c-0.9,0.7-1.9,1.5-2.8,2.3
			c-0.9,0.8-1.9,1.5-2.9,2.2c-1,0.6-2.2,1.2-3.4,1.6c-1.2,0.4-2.6,0.6-4.2,0.6c-0.8,0-1.4-0.2-1.9-0.7c-0.5-0.5-0.9-1.2-1.3-2.1
			c-0.3-0.9-0.5-1.9-0.7-3.1c-0.1-1.2-0.2-2.5-0.2-3.9c0-1.3,0-2.7,0.1-4.2c0.1-1.5,0.2-3,0.4-4.5h-0.5l-6.4,16.4
			c-0.6,0.9-1.2,1.5-1.8,1.8c-0.7,0.3-1.5,0.5-2.3,0.5c-0.7,0-1.2-0.2-1.6-0.6c-0.4-0.4-0.7-0.8-0.9-1.4c-0.2-0.6-0.4-1.2-0.4-1.9
			C298.5,66.1,298.4,65.5,298.4,64.8z"/>
		<path fill="#545454" d="M340.7,55.1c-0.6,2.3-1.3,4.4-2.2,6.3s-1.7,3.6-2.7,5s-1.9,2.5-3,3.2s-2,1.2-3,1.2c-1.7,0-2.9-1.2-3.6-3.6
			c-0.8-2.4-1.2-6-1.2-10.8c0-0.7,0-1.3,0-1.8c0-0.5,0-1,0-1.6c0-0.5,0.1-1.1,0.1-1.7c0-0.6,0.1-1.3,0.2-2.2c0-0.2,0.1-0.6,0.1-1.1
			c0.1-0.5,0.2-1.1,0.3-1.8c0.2-0.7,0.4-1.3,0.6-2s0.6-1.4,1-1.9c0.4-0.6,0.9-1.1,1.5-1.4s1.2-0.6,2-0.6l0.8,0.1
			c0.9,0,1.6,0.2,2.1,0.6c0.5,0.4,0.7,0.9,0.7,1.5l-2.2,17.2l0.4,0c0.9-2.2,1.7-4.1,2.4-5.9c0.7-1.8,1.3-3.4,1.9-4.8
			c0.6-1.4,1.1-2.7,1.7-3.7c0.5-1.1,1.1-1.9,1.8-2.6s1.3-1.2,2.1-1.6c0.8-0.3,1.7-0.5,2.8-0.5c0.9,0,1.6,0.2,2.1,0.6
			c0.5,0.4,0.7,0.9,0.7,1.5l-2.6,17.2l0.4,0l7.6-16.9c0.3-0.6,0.8-1.1,1.7-1.6c0.8-0.5,1.9-0.7,3-0.7c1.2,0,2.2,0.2,2.9,0.7
			c0.7,0.5,1.1,1.1,1.1,1.9c0,0.6-0.1,1.2-0.3,1.9c-0.2,0.7-0.4,1.3-0.7,1.9c-0.2,0.6-0.5,1.1-0.7,1.5c-0.2,0.4-0.3,0.6-0.3,0.7
			c-0.5,0.8-0.9,1.6-1.3,2.3c-0.4,0.7-0.7,1.4-1,1.9c-0.4,0.6-0.7,1.2-1,1.8c0.3,0.8,0.7,1.6,1.1,2.2c0.4,0.6,0.9,1.1,1.5,1.5
			c0.6,0.5,1.3,0.7,2.1,0.7c0.7,0,1.5-0.2,2.4-0.6c0.9-0.4,1.8-0.8,2.6-1.3c1-0.5,1.9-1.1,2.9-1.8v7.5c-1.4,0.9-2.8,1.6-4.3,2.1
			c-1.5,0.5-2.9,0.8-4.3,0.8c-1.1,0-2.1-0.1-3.1-0.4c-1-0.3-1.8-0.7-2.5-1.2c-0.7-0.5-1.3-1.3-1.7-2.1s-0.7-1.9-0.7-3.2
			c-0.7,1.7-1.5,3.2-2.3,4.6c-0.8,1.4-1.6,2.6-2.4,3.6s-1.7,1.8-2.5,2.4c-0.8,0.6-1.7,0.9-2.5,0.9c-0.3,0-0.6-0.2-0.8-0.7
			c-0.2-0.5-0.4-1.1-0.6-1.8c-0.1-0.8-0.3-1.7-0.4-2.7c-0.1-1-0.2-2.1-0.2-3.3s-0.1-2.3-0.1-3.5c0-1.2,0-2.4,0-3.5L340.7,55.1z"/>
		<path fill="#545454" d="M387.6,47c0.6,1.2,1.1,2.5,1.4,3.9c0.3,1.4,0.5,2.7,0.5,3.9c0,1.2-0.1,2.5-0.4,3.8
			c-0.3,1.3-0.7,2.5-1.2,3.7c-0.5,1.2-1.2,2.3-1.9,3.3c-0.8,1-1.6,1.9-2.6,2.7s-2,1.4-3.2,1.8s-2.4,0.7-3.6,0.7
			c-1.9,0-3.5-0.4-4.8-1.2c-1.3-0.8-2.4-1.9-3.3-3.2c-0.8-1.3-1.5-2.8-1.9-4.4s-0.6-3.3-0.6-5c0-2.3,0.3-4.5,1-6.5
			c0.7-2,1.7-3.8,3-5.3c1.3-1.5,2.9-2.7,4.8-3.5c1.9-0.9,4-1.3,6.3-1.3c2,0,3.9,0.3,5.6,0.9c1.8,0.6,3.4,1.5,4.9,2.5
			c1.5,1,3,2.2,4.3,3.6c1.3,1.4,2.6,2.8,3.7,4.2l-0.6,4.5c-0.6-0.8-1.3-1.6-2.3-2.5c-1-0.9-2-1.8-3.1-2.6c-1.1-0.8-2.2-1.6-3.2-2.4
			c-1.1-0.8-2-1.4-2.7-1.9L387.6,47z M377.8,64.7c0.7,0,1.4-0.4,2.1-1.1c0.7-0.7,1.3-1.7,1.8-2.8c0.5-1.1,0.9-2.3,1.2-3.7
			c0.3-1.3,0.5-2.6,0.5-3.9c0-1-0.1-1.9-0.2-2.7c-0.1-0.8-0.4-1.6-0.7-2.2c-0.3-0.6-0.7-1.1-1.1-1.5c-0.5-0.4-1-0.5-1.7-0.5
			c-0.9,0-1.7,0.4-2.5,1.1c-0.8,0.7-1.5,1.7-2.1,2.8c-0.6,1.2-1.1,2.4-1.4,3.8c-0.3,1.4-0.5,2.7-0.5,4c0,0.9,0.1,1.7,0.3,2.5
			c0.2,0.8,0.4,1.5,0.8,2c0.4,0.6,0.8,1,1.4,1.4C376.3,64.5,377,64.7,377.8,64.7z"/>
		<path fill="#545454" d="M395.9,64.1c0-0.9,0.1-2,0.2-3.3c0.1-1.2,0.2-2.5,0.4-3.9c0.2-1.4,0.4-2.8,0.6-4.2
			c0.2-1.4,0.5-2.8,0.8-4.1c0.3-1.3,0.5-2.5,0.8-3.6c0.3-1.1,0.6-2,0.8-2.7c0.2-0.5,0.3-0.8,0.5-1.1c0.2-0.3,0.4-0.5,0.6-0.7
			c0.2-0.2,0.5-0.3,0.8-0.3c0.3-0.1,0.7-0.1,1.2-0.1c0.5,0,1,0,1.3,0.1c0.3,0.1,0.5,0.2,0.7,0.4c0.1,0.2,0.2,0.5,0.3,0.9
			c0,0.4,0,0.9,0,1.6c0,0.8,0,1.7,0,2.8c0,1.1,0,2.2,0.1,3.3h0.3c0.4-0.8,0.9-1.8,1.4-2.8c0.5-1,1.1-2,1.8-2.9
			c0.7-0.9,1.5-1.7,2.4-2.3s1.9-0.9,3.1-0.9c0.4,0,0.8,0.1,1.2,0.2c0.4,0.1,0.7,0.3,1,0.6c0.3,0.3,0.5,0.6,0.7,0.9
			c0.2,0.4,0.3,0.8,0.3,1.3c0,0.4-0.1,0.9-0.2,1.5c-0.1,0.6-0.2,1.3-0.3,2s-0.2,1.4-0.3,2.1c-0.1,0.7-0.2,1.2-0.2,1.7
			c0,0.8,0.1,1.4,0.2,1.9c0.1,0.5,0.3,0.9,0.6,1.2c0.2,0.3,0.5,0.5,0.8,0.7c0.3,0.1,0.6,0.2,1,0.2c1,0,1.9-0.2,3-0.6
			c1-0.4,1.9-0.9,2.8-1.4c1-0.6,2-1.3,2.9-2.1l-0.5,7.4c-0.6,0.4-1.2,0.8-1.9,1.2c-0.7,0.4-1.4,0.9-2.2,1.3c-0.8,0.4-1.6,0.7-2.5,1
			c-0.9,0.3-1.7,0.4-2.6,0.4c-1.6,0-2.9-0.3-3.8-1c-1-0.6-1.7-1.5-2.3-2.5c-0.6-1-1-2.2-1.3-3.5c-0.3-1.3-0.5-2.6-0.7-4h-0.5
			l-5.7,15.8c-0.3,0.8-0.6,1.5-0.8,2c-0.3,0.5-0.5,1-0.8,1.3c-0.3,0.3-0.6,0.6-0.9,0.7s-0.7,0.2-1,0.2c-0.9,0-1.6-0.2-2.1-0.6
			c-0.5-0.4-0.9-0.9-1.2-1.5c-0.3-0.6-0.5-1.3-0.6-2.1C395.9,65.8,395.9,65,395.9,64.1z"/>
		<path fill="#545454" d="M459.1,64.5c-1.5,1.2-3,2.2-4.4,3.1c-0.6,0.4-1.3,0.8-1.9,1.1c-0.7,0.4-1.3,0.7-2,1
			c-0.7,0.3-1.3,0.5-1.9,0.7c-0.6,0.2-1.2,0.3-1.7,0.3c-0.3,0-0.7-0.1-1.3-0.2c-0.6-0.1-1.2-0.4-1.9-0.8c-0.7-0.4-1.4-1-2.1-1.7
			c-0.7-0.7-1.3-1.7-1.8-3c-0.8,0.8-1.6,1.5-2.5,2.2c-0.9,0.7-1.8,1.3-2.7,1.8c-0.9,0.5-1.9,0.9-2.9,1.2c-1,0.3-1.9,0.5-2.9,0.5
			c-1.4,0-2.6-0.3-3.6-0.9c-1-0.6-1.8-1.4-2.5-2.4c-0.7-1-1.2-2.1-1.5-3.3c-0.3-1.2-0.5-2.5-0.5-3.9c0-1.4,0.2-2.7,0.5-4.1
			c0.3-1.4,0.9-2.7,1.5-4c0.7-1.3,1.5-2.5,2.4-3.7c1-1.2,2-2.2,3.2-3.1c1.2-0.9,2.5-1.6,3.9-2.2c1.4-0.6,2.9-1,4.5-1.1
			c0.1-2.7,0.3-5.4,0.7-8c0.4-2.6,1-5.2,1.7-7.6c0.7-2.4,1.5-4.6,2.5-6.6c0.9-2,2-3.8,3.1-5.3c1.1-1.5,2.3-2.6,3.6-3.5
			s2.6-1.3,3.9-1.3c1,0,1.8,0.3,2.5,0.8c0.7,0.5,1.3,1.2,1.7,2.1c0.4,0.9,0.7,1.9,0.9,3c0.2,1.1,0.3,2.3,0.3,3.5
			c0,0.7,0,1.5-0.1,2.3c-0.3,3-0.8,5.8-1.5,8.5c-0.7,2.7-1.6,5.2-2.6,7.8c-1,2.5-2.1,5-3.2,7.5c-1.2,2.5-2.3,5-3.4,7.7
			c-0.1,0.3-0.2,0.7-0.3,1.1c-0.1,0.4-0.2,0.9-0.3,1.4c-0.1,0.5-0.2,1-0.2,1.5c-0.1,0.5-0.1,1-0.1,1.5c0,0.6,0,1.2,0.1,1.7
			c0.1,0.6,0.2,1,0.4,1.5c0.2,0.4,0.4,0.8,0.7,1c0.3,0.3,0.6,0.4,1.1,0.4c0.4,0,0.8-0.1,1.3-0.2c0.5-0.2,1-0.4,1.5-0.7
			c0.5-0.3,1.1-0.6,1.6-0.9c0.5-0.3,1.1-0.7,1.6-1.1c1.2-0.8,2.4-1.8,3.6-2.9L459.1,64.5z M437.2,46.8c-1.4,0.7-2.6,1.6-3.7,2.7
			c-1.1,1.1-2,2.3-2.7,3.6c-0.7,1.3-1.3,2.6-1.7,3.9c-0.4,1.3-0.6,2.5-0.6,3.6c0,0.4,0,0.8,0.1,1.3c0.1,0.4,0.3,0.8,0.5,1.1
			c0.3,0.3,0.6,0.6,1.1,0.8c0.5,0.2,1.1,0.3,1.8,0.3c0.4,0,0.8-0.1,1.1-0.3c0.4-0.2,0.7-0.4,1.1-0.7c0.3-0.3,0.7-0.7,1-1
			c0.3-0.4,0.6-0.8,0.8-1.2c0.6-1,1.1-2.1,1.6-3.3c-0.1-0.3-0.1-0.8-0.2-1.4c0-0.6-0.1-1.4-0.1-2.2c0-0.8,0-1.6-0.1-2.5
			c0-0.8,0-1.6,0-2.3c0-0.7,0-1.3,0-1.7C437.3,46.9,437.3,46.7,437.2,46.8z M452.2,23.7c0.1-1.5,0.2-2.7,0.2-3.5
			c0-1.1-0.1-1.9-0.3-2.4s-0.5-0.7-0.9-0.7c-0.7,0-1.3,0.4-1.8,1.3c-0.5,0.9-1,2-1.5,3.3c-0.4,1.3-0.8,2.8-1.1,4.4
			c-0.3,1.6-0.6,3.2-0.8,4.7c-0.2,1.5-0.4,2.9-0.5,4.1s-0.2,2.1-0.3,2.6c-0.1,1-0.2,2-0.2,3s-0.1,1.8-0.1,2.6c0,0.8,0,1.5,0,2.1
			c0,0.6,0,1,0,1.4v0.3c1.2-2.8,2.3-5.5,3.3-8.2c0.4-1.2,0.9-2.4,1.3-3.7c0.4-1.3,0.8-2.6,1.2-3.9c0.4-1.3,0.7-2.6,0.9-3.8
			C451.9,26,452,24.9,452.2,23.7z"/>
	</g>
	<path display="inline" fill="#F27C7C" d="M449.7,91.6h-115c-1.3,0-2.4-1.1-2.4-2.4l0,0c0-1.3,1.1-2.4,2.4-2.4h115
		c1.3,0,2.4,1.1,2.4,2.4l0,0C452.1,90.6,451,91.6,449.7,91.6z"/>
</g>
<g id="Layer_4" display="none">
	<g display="inline">
		<path fill="#F27C7C" d="M149.6,95.2H8.7c-4.8,0-8.7-3.9-8.7-8.7V8.7C0,3.9,3.9,0,8.7,0h140.8c4.8,0,8.7,3.9,8.7,8.7v77.8
			C158.3,91.3,154.4,95.2,149.6,95.2z"/>
		<rect x="117.3" y="76.3" fill="#FFFFFF" width="0.1" height="1.9"/>
		<rect x="121.1" y="76.3" fill="#FFFFFF" width="0.3" height="1.9"/>
		<rect x="117.3" y="76.3" fill="#FFFFFF" width="0.1" height="1.9"/>
		<rect x="121.1" y="76.3" fill="#FFFFFF" width="0.3" height="1.9"/>
		<rect x="117.3" y="20.7" fill="#FFFFFF" width="0.1" height="0.5"/>
		<rect x="117.3" y="76.3" fill="#FFFFFF" width="0.1" height="2"/>
		<rect x="121.1" y="76.3" fill="#FFFFFF" width="0.3" height="2"/>
		<path fill="#FFFFFF" d="M130.3,24.2v50c0,1.1,0.9,2,2,2h9c1.1,0,2,0.9,2,2v2c0,1.1-0.9,2-2,2h-10c-1.1,0-2-0.9-2-2l0,0
			c0-1.1-0.9-2-2-2l0,0c-1.1,0-2,0.9-2,2l0,0c0,1.1-0.9,2-2,2h-10c-1.1,0-2-0.9-2-2v-2c0-1.1,0.9-2,2-2h9c1.1,0,2-0.9,2-2v-50
			c0-1.1-0.9-2-2-2h-9c-1.1,0-2-0.9-2-2v-2c0-1.1,0.9-2,2-2h10c1.1,0,2,0.9,2,2v1c0,1.1,0.9,2,2,2l0,0c1.1,0,2-0.9,2-2v-1
			c0-1.1,0.9-2,2-2h10c1.1,0,2,0.9,2,2v2c0,1.1-0.9,2-2,2h-9C131.2,22.2,130.3,23.1,130.3,24.2z"/>
		<rect x="117.3" y="76.3" fill="#FFFFFF" width="0.1" height="1.9"/>
		<rect x="121.1" y="76.3" fill="#FFFFFF" width="0.3" height="1.9"/>
		<g>
			<path fill="#545454" d="M202.1,32.1c0,1.4,0.4,2.6,1.2,3.7c0.8,1.1,1.9,2.1,3.2,3.1c1.3,0.9,2.9,1.8,4.6,2.7
				c1.7,0.8,3.4,1.7,5.2,2.6s3.5,1.9,5.2,2.9c1.7,1,3.2,2.2,4.6,3.5c1.3,1.3,2.4,2.8,3.2,4.4c0.8,1.6,1.2,3.5,1.2,5.6
				c0,1.9-0.3,3.7-0.9,5.3c-0.6,1.6-1.5,3-2.5,4.3c-1.1,1.3-2.3,2.4-3.8,3.4s-3,1.8-4.7,2.4c-1.7,0.6-3.5,1.1-5.3,1.4
				c-1.9,0.3-3.7,0.5-5.6,0.5c-2.6,0-5.2-0.3-7.7-1c-2.5-0.6-4.7-1.6-6.7-2.9c-1.9-1.3-3.5-2.9-4.7-4.9c-1.2-2-1.8-4.2-1.8-6.9
				c0-1.4,0.2-2.5,0.7-3.6c0.4-1,1-1.9,1.6-2.6c0.6-0.7,1.3-1.2,2.1-1.6c0.8-0.3,1.5-0.5,2.1-0.5c0.7,0,1.2,0.2,1.7,0.6
				s0.7,0.9,0.7,1.7c0,0.4,0,0.7-0.1,1.1c-0.1,0.4-0.2,0.8-0.3,1.3c-0.1,0.5-0.2,1-0.3,1.6c-0.1,0.6-0.1,1.2-0.1,1.9
				c0,1.5,0.3,2.8,1,3.8c0.7,1.1,1.6,2,2.7,2.7c1.1,0.7,2.4,1.2,3.9,1.6c1.5,0.3,3,0.5,4.5,0.5c1.8,0,3.7-0.2,5.5-0.7s3.5-1.1,5-2
				c1.5-0.9,2.6-1.9,3.6-3.2c0.9-1.3,1.4-2.7,1.4-4.3c0-1.5-0.4-2.8-1.2-4c-0.8-1.2-1.9-2.3-3.2-3.3c-1.3-1-2.9-2-4.6-2.8
				s-3.5-1.8-5.2-2.7c-1.8-0.9-3.5-1.9-5.2-2.9c-1.7-1-3.2-2.1-4.6-3.3s-2.4-2.6-3.2-4c-0.8-1.5-1.2-3.2-1.2-5.1
				c0-1.8,0.4-3.5,1.3-5.3c0.9-1.7,2.1-3.3,3.9-4.6c1.7-1.4,3.9-2.5,6.5-3.3c2.6-0.8,5.6-1.3,9.1-1.3c2.2,0,4.4,0.3,6.5,1
				c2.1,0.7,4,1.6,5.6,2.8s3,2.6,4,4.3c1,1.7,1.5,3.5,1.5,5.6c0,1.2-0.2,2.4-0.6,3.7c-0.4,1.3-1.1,2.6-2,4c-0.9,1.3-1.9,2.3-2.9,3
				c-1,0.6-2,1-2.8,1c-0.6,0-1.2-0.2-1.6-0.6c-0.4-0.4-0.6-0.9-0.6-1.7c0-0.5,0.1-1.2,0.4-2c0.3-0.8,0.7-1.6,1.3-2.6
				c0.6-0.9,1-1.8,1.3-2.6c0.3-0.8,0.4-1.6,0.4-2.3c0-1.1-0.3-2-0.9-2.8c-0.6-0.8-1.4-1.5-2.4-2c-1-0.5-2.3-1-3.7-1.2
				c-1.4-0.3-3-0.4-4.7-0.4c-1.9,0-3.6,0.2-5,0.7c-1.4,0.4-2.6,1-3.5,1.7c-0.9,0.7-1.6,1.5-2.1,2.3
				C202.3,30.4,202.1,31.3,202.1,32.1z"/>
			<path fill="#545454" d="M246.9,56c0.8-1,1.6-2,2.5-3.2c0.9-1.2,1.8-2.3,2.7-3.3c0.9-1.1,1.7-2,2.4-2.8s1.3-1.4,1.7-1.7
				c0.7-0.5,1.5-0.9,2.4-1.2c1-0.3,2-0.5,3.2-0.5c0.6,0,1.2,0.1,1.7,0.4c0.5,0.3,1,0.7,1.4,1.2s0.7,1.1,1,1.8
				c0.2,0.7,0.3,1.5,0.3,2.4c0,0.9-0.2,1.7-0.6,2.6c-0.4,0.9-1,1.8-1.6,2.7s-1.3,1.8-2.1,2.7c-0.7,0.9-1.4,1.8-2.1,2.7
				c-0.6,0.9-1.2,1.8-1.6,2.7c-0.4,0.9-0.6,1.8-0.6,2.7c0,0.8,0.2,1.3,0.6,1.6c0.4,0.3,0.9,0.5,1.7,0.5c0.4,0,0.9-0.1,1.4-0.4
				c0.5-0.3,1-0.7,1.5-1.1c0.5-0.5,1.1-1,1.6-1.6c0.5-0.6,1.1-1.2,1.6-1.7c0.5-0.6,1-1.2,1.4-1.7c0.4-0.5,0.8-1,1.2-1.4l1.9,7.8
				c-0.7,1-1.5,1.8-2.5,2.6c-1,0.8-2.1,1.5-3.3,2.1c-1.2,0.6-2.4,1.1-3.7,1.4c-1.3,0.3-2.5,0.5-3.6,0.5c-1.5,0-2.8-0.2-3.7-0.6
				c-1-0.4-1.7-0.9-2.3-1.5c-0.6-0.6-0.9-1.3-1.1-2.1c-0.2-0.8-0.3-1.6-0.3-2.4c0-0.5,0.1-1.1,0.2-1.8c0.1-0.7,0.3-1.5,0.7-2.4
				c0.3-0.9,0.8-1.9,1.4-2.9c0.6-1.1,1.4-2.2,2.3-3.4c0.4-0.4,0.7-0.7,1-1c0.3-0.3,0.6-0.6,0.8-0.8c0.2-0.2,0.4-0.5,0.5-0.7
				c0.1-0.2,0.2-0.4,0.2-0.7c0-0.4-0.1-0.8-0.2-1.1c-0.2-0.3-0.4-0.4-0.7-0.4c-0.4,0-0.8,0.2-1.4,0.7c-0.6,0.5-1.2,1.3-1.9,2.4
				l-9.3,16.4c-0.5,0.8-1,1.4-1.5,1.8c-0.5,0.3-1.1,0.5-1.8,0.5c-0.9,0-1.6-0.2-2.2-0.6c-0.5-0.4-0.9-0.9-1.2-1.6
				c-0.3-0.7-0.4-1.4-0.5-2.3c-0.1-0.9-0.1-1.8-0.1-2.8c0-1.2,0-2.8,0.1-4.8c0.1-2,0.2-4.2,0.4-6.6c0.2-2.4,0.4-4.9,0.7-7.5
				c0.3-2.6,0.6-5.1,1-7.6c0.1-0.9,0.3-1.9,0.6-3.2c0.2-1.2,0.5-2.6,0.9-4c0.3-1.4,0.8-2.9,1.2-4.4c0.5-1.5,1-3,1.7-4.5
				c0.6-1.4,1.3-2.8,2.1-4.1c0.8-1.3,1.7-2.5,2.6-3.4c1-1,2-1.8,3.2-2.3c1.2-0.6,2.4-0.9,3.8-0.9c1.1,0,2,0.2,2.7,0.5
				c0.7,0.3,1.3,0.8,1.7,1.5c0.4,0.6,0.7,1.4,0.9,2.2c0.2,0.9,0.3,1.8,0.3,2.8c0,1.8-0.2,3.7-0.7,5.8c-0.5,2.1-1,4.2-1.7,6.2
				c-0.7,2.1-1.5,4.1-2.3,6.1c-0.8,2-1.6,3.7-2.4,5.3s-1.4,2.9-2,4c-0.6,1.1-1,1.8-1.2,2.1l-3.8,5.6L246.9,56z M253.1,20.4
				c-0.7,0-1.3,0.2-1.7,0.6c-0.5,0.4-0.9,1-1.4,1.8c-0.4,0.8-0.9,1.7-1.3,2.9c-0.4,1.1-0.9,2.4-1.5,3.7c-0.3,1.2-0.7,2.5-0.9,3.7
				c-0.3,1.3-0.5,2.6-0.8,3.9c-0.2,1.3-0.4,2.5-0.6,3.8c-0.2,1.2-0.3,2.4-0.5,3.5c-0.3,2.6-0.6,5.2-0.8,7.7c0.5-1.4,1-2.9,1.5-4.6
				c0.5-1.6,1.1-3.3,1.6-4.9c0.5-1.6,1-3.1,1.5-4.5c0.5-1.4,0.9-2.6,1.2-3.6c0.1-0.5,0.4-1,0.6-1.7c0.3-0.7,0.6-1.4,0.9-2.3
				c0.3-0.8,0.6-1.6,1-2.5c0.3-0.9,0.6-1.7,0.9-2.5c0.3-0.8,0.5-1.6,0.7-2.3s0.3-1.3,0.3-1.8C253.8,20.7,253.6,20.4,253.1,20.4z"/>
			<path fill="#545454" d="M287.5,67c-0.8,0.7-1.7,1.4-2.8,2.2c-1.1,0.8-2.4,1.5-3.7,2.2c-1.3,0.7-2.7,1.2-4,1.7
				c-1.4,0.4-2.7,0.7-3.9,0.7c-1.1,0-2-0.2-2.8-0.5s-1.4-0.7-1.8-1.3c-0.5-0.5-0.8-1.2-1-2c-0.2-0.8-0.3-1.7-0.3-2.6
				c0-1.3,0.2-2.9,0.5-4.6c0.3-1.8,0.7-3.6,1.1-5.5s0.9-3.8,1.4-5.7c0.5-1.9,0.9-3.6,1.3-5.2c0.1-0.5,0.4-1,0.9-1.4
				c0.4-0.4,0.9-0.7,1.5-1c0.6-0.2,1.1-0.4,1.7-0.5c0.6-0.1,1.1-0.2,1.6-0.2c0.9,0,1.5,0.2,1.8,0.5c0.3,0.3,0.5,0.8,0.5,1.3
				c0,0.5-0.1,1.1-0.3,2c-0.2,0.9-0.5,1.9-0.8,3c-0.3,1.1-0.7,2.3-1,3.6c-0.4,1.3-0.7,2.6-1,3.8c-0.3,1.3-0.6,2.5-0.8,3.7
				c-0.2,1.2-0.3,2.3-0.3,3.3c0,1,0.1,1.7,0.3,2.3c0.2,0.6,0.6,0.8,1.3,0.8c0.8,0,1.6-0.3,2.5-0.8c0.9-0.5,1.9-1.2,2.8-1.9
				c1-0.8,1.9-1.5,2.8-2.3c0.9-0.8,1.7-1.5,2.4-2.1V67z M273.3,34.4c0-0.5,0.1-1,0.3-1.7c0.2-0.6,0.6-1.2,1-1.7
				c0.5-0.5,1.1-1,1.9-1.4c0.8-0.4,1.8-0.6,3-0.6c0.7,0,1.4,0.1,2.1,0.3c0.7,0.2,1.2,0.4,1.7,0.8c0.5,0.3,0.9,0.8,1.2,1.4
				c0.3,0.6,0.4,1.2,0.4,2c0,0.7-0.1,1.4-0.3,2.1c-0.2,0.7-0.6,1.3-1.1,1.8c-0.5,0.5-1.1,1-1.9,1.3s-1.7,0.5-2.8,0.5
				c-1.9,0-3.2-0.4-4.1-1.3S273.3,35.8,273.3,34.4z"/>
			<path fill="#545454" d="M298.4,67.8c0-0.3,0-0.7,0.1-1.2c0-0.5,0.1-1.1,0.2-1.7c0.1-0.7,0.2-1.3,0.3-2.1c0.1-0.7,0.2-1.5,0.3-2.2
				c0.2-1.7,0.5-3.5,0.9-5.5h-0.5c-0.3,0.3-0.5,0.8-0.9,1.4c-0.3,0.6-0.8,1.6-1.4,2.8c-0.6,1.2-1.3,2.8-2.3,4.8
				c-0.9,2-2.1,4.4-3.6,7.3c-0.4,0.9-0.9,1.5-1.5,1.8c-0.6,0.3-1.2,0.5-1.9,0.5c-0.9,0-1.6-0.2-2.1-0.6c-0.5-0.4-0.9-0.9-1.2-1.5
				c-0.3-0.6-0.5-1.3-0.6-2.1c-0.1-0.8-0.1-1.6-0.1-2.5c0-0.9,0.1-1.9,0.2-3.1c0.1-1.2,0.2-2.4,0.4-3.7c0.2-1.3,0.4-2.7,0.6-4
				c0.2-1.4,0.5-2.7,0.7-3.9c0.2-1.2,0.5-2.4,0.7-3.4c0.3-1,0.5-1.9,0.7-2.5c0.2-0.7,0.4-1.2,0.6-1.6c0.2-0.4,0.4-0.7,0.7-0.9
				c0.2-0.2,0.5-0.4,0.9-0.4c0.3-0.1,0.8-0.1,1.3-0.1c0.8,0,1.4,0,1.9,0.1c0.5,0.1,0.8,0.2,1,0.4c0.2,0.2,0.4,0.5,0.4,0.9
				c0,0.4,0.1,0.9,0.1,1.6c0,0.4,0,0.8,0,1.2c0,0.5-0.1,1-0.1,1.5c-0.1,0.5-0.1,1.1-0.2,1.6c-0.1,0.6-0.2,1.1-0.2,1.6
				c-0.2,1.2-0.4,2.5-0.6,3.9l0.3,0.4c0-0.1,0.3-0.5,0.7-1.2c0.4-0.7,0.9-1.6,1.5-2.7c0.6-1,1.3-2.1,2-3.3c0.7-1.1,1.4-2.1,2-3
				c0.6-0.9,1.3-1.6,2-2.2c0.7-0.6,1.5-0.9,2.5-0.9c0.9,0,1.7,0.3,2.3,0.8c0.6,0.5,1,1.3,1,2.2c0,0.8-0.1,1.6-0.2,2.3
				c-0.1,0.7-0.2,1.5-0.4,2.2c-0.2,0.7-0.3,1.4-0.5,2c-0.2,0.7-0.3,1.3-0.5,2c-0.1,0.5-0.2,0.8-0.2,0.9c0,0.1,0,0.2,0,0.3l0.3,0.4
				c0-0.1,0.3-0.5,0.7-1.2c0.4-0.7,1-1.6,1.6-2.6c0.6-1,1.3-2.1,2.1-3.3c0.7-1.1,1.4-2.1,2-3c0.6-0.8,1.2-1.6,1.8-2.1
				c0.6-0.6,1.4-0.9,2.3-0.9c1,0,1.8,0.3,2.5,0.8c0.7,0.5,1,1.3,1,2.2c0,1.5-0.1,2.8-0.2,4.2c-0.1,1.3-0.3,2.6-0.5,3.9
				c-0.2,1.3-0.4,2.6-0.5,3.9c-0.1,1.3-0.2,2.7-0.2,4.1c0,1.1,0.1,2.1,0.4,2.8c0.3,0.7,0.7,1.1,1.1,1.1c0.4,0,0.9-0.1,1.4-0.3
				c0.5-0.2,1-0.4,1.5-0.7c0.5-0.3,1-0.6,1.5-1c0.5-0.4,1-0.8,1.4-1.2c1-1,2.1-2.1,3.1-3.3l0.5,7.5c-0.9,0.7-1.9,1.5-2.8,2.3
				c-0.9,0.8-1.9,1.5-2.9,2.2c-1,0.6-2.2,1.2-3.4,1.6c-1.2,0.4-2.6,0.6-4.2,0.6c-0.8,0-1.4-0.2-1.9-0.7c-0.5-0.5-0.9-1.2-1.3-2.1
				c-0.3-0.9-0.5-1.9-0.7-3.1c-0.1-1.2-0.2-2.5-0.2-3.9c0-1.3,0-2.7,0.1-4.2c0.1-1.5,0.2-3,0.4-4.5h-0.5l-6.4,16.4
				c-0.6,0.9-1.2,1.5-1.8,1.8c-0.7,0.3-1.5,0.5-2.3,0.5c-0.7,0-1.2-0.2-1.6-0.6c-0.4-0.4-0.7-0.8-0.9-1.4c-0.2-0.6-0.4-1.2-0.4-1.9
				C298.5,69.1,298.4,68.5,298.4,67.8z"/>
			<path fill="#545454" d="M340.7,58.1c-0.6,2.3-1.3,4.4-2.2,6.3s-1.7,3.6-2.7,5s-1.9,2.5-3,3.2s-2,1.2-3,1.2
				c-1.7,0-2.9-1.2-3.6-3.6c-0.8-2.4-1.2-6-1.2-10.8c0-0.7,0-1.3,0-1.8c0-0.5,0-1,0-1.6c0-0.5,0.1-1.1,0.1-1.7
				c0-0.6,0.1-1.3,0.2-2.2c0-0.2,0.1-0.6,0.1-1.1c0.1-0.5,0.2-1.1,0.3-1.8c0.2-0.7,0.4-1.3,0.6-2s0.6-1.4,1-1.9
				c0.4-0.6,0.9-1.1,1.5-1.4s1.2-0.6,2-0.6l0.8,0.1c0.9,0,1.6,0.2,2.1,0.6c0.5,0.4,0.7,0.9,0.7,1.5l-2.2,17.2l0.4,0
				c0.9-2.2,1.7-4.1,2.4-5.9c0.7-1.8,1.3-3.4,1.9-4.8c0.6-1.4,1.1-2.7,1.7-3.7c0.5-1.1,1.1-1.9,1.8-2.6s1.3-1.2,2.1-1.6
				c0.8-0.3,1.7-0.5,2.8-0.5c0.9,0,1.6,0.2,2.1,0.6c0.5,0.4,0.7,0.9,0.7,1.5l-2.6,17.2l0.4,0l7.6-16.9c0.3-0.6,0.8-1.1,1.7-1.6
				c0.8-0.5,1.9-0.7,3-0.7c1.2,0,2.2,0.2,2.9,0.7c0.7,0.5,1.1,1.1,1.1,1.9c0,0.6-0.1,1.2-0.3,1.9c-0.2,0.7-0.4,1.3-0.7,1.9
				c-0.2,0.6-0.5,1.1-0.7,1.5c-0.2,0.4-0.3,0.6-0.3,0.7c-0.5,0.8-0.9,1.6-1.3,2.3c-0.4,0.7-0.7,1.4-1,1.9c-0.4,0.6-0.7,1.2-1,1.8
				c0.3,0.8,0.7,1.6,1.1,2.2c0.4,0.6,0.9,1.1,1.5,1.5c0.6,0.5,1.3,0.7,2.1,0.7c0.7,0,1.5-0.2,2.4-0.6c0.9-0.4,1.8-0.8,2.6-1.3
				c1-0.5,1.9-1.1,2.9-1.8v7.5c-1.4,0.9-2.8,1.6-4.3,2.1c-1.5,0.5-2.9,0.8-4.3,0.8c-1.1,0-2.1-0.1-3.1-0.4c-1-0.3-1.8-0.7-2.5-1.2
				c-0.7-0.5-1.3-1.3-1.7-2.1s-0.7-1.9-0.7-3.2c-0.7,1.7-1.5,3.2-2.3,4.6c-0.8,1.4-1.6,2.6-2.4,3.6s-1.7,1.8-2.5,2.4
				c-0.8,0.6-1.7,0.9-2.5,0.9c-0.3,0-0.6-0.2-0.8-0.7c-0.2-0.5-0.4-1.1-0.6-1.8c-0.1-0.8-0.3-1.7-0.4-2.7c-0.1-1-0.2-2.1-0.2-3.3
				s-0.1-2.3-0.1-3.5c0-1.2,0-2.4,0-3.5L340.7,58.1z"/>
			<path fill="#545454" d="M387.6,50c0.6,1.2,1.1,2.5,1.4,3.9c0.3,1.4,0.5,2.7,0.5,3.9c0,1.2-0.1,2.5-0.4,3.8
				c-0.3,1.3-0.7,2.5-1.2,3.7c-0.5,1.2-1.2,2.3-1.9,3.3c-0.8,1-1.6,1.9-2.6,2.7s-2,1.4-3.2,1.8s-2.4,0.7-3.6,0.7
				c-1.9,0-3.5-0.4-4.8-1.2c-1.3-0.8-2.4-1.9-3.3-3.2c-0.8-1.3-1.5-2.8-1.9-4.4s-0.6-3.3-0.6-5c0-2.3,0.3-4.5,1-6.5
				c0.7-2,1.7-3.8,3-5.3c1.3-1.5,2.9-2.7,4.8-3.5c1.9-0.9,4-1.3,6.3-1.3c2,0,3.9,0.3,5.6,0.9c1.8,0.6,3.4,1.5,4.9,2.5
				c1.5,1,3,2.2,4.3,3.6c1.3,1.4,2.6,2.8,3.7,4.2l-0.6,4.5c-0.6-0.8-1.3-1.6-2.3-2.5c-1-0.9-2-1.8-3.1-2.6c-1.1-0.8-2.2-1.6-3.2-2.4
				c-1.1-0.8-2-1.4-2.7-1.9L387.6,50z M377.8,67.7c0.7,0,1.4-0.4,2.1-1.1c0.7-0.7,1.3-1.7,1.8-2.8c0.5-1.1,0.9-2.3,1.2-3.7
				c0.3-1.3,0.5-2.6,0.5-3.9c0-1-0.1-1.9-0.2-2.7c-0.1-0.8-0.4-1.6-0.7-2.2c-0.3-0.6-0.7-1.1-1.1-1.5c-0.5-0.4-1-0.5-1.7-0.5
				c-0.9,0-1.7,0.4-2.5,1.1c-0.8,0.7-1.5,1.7-2.1,2.8c-0.6,1.2-1.1,2.4-1.4,3.8c-0.3,1.4-0.5,2.7-0.5,4c0,0.9,0.1,1.7,0.3,2.5
				c0.2,0.8,0.4,1.5,0.8,2c0.4,0.6,0.8,1,1.4,1.4C376.3,67.5,377,67.7,377.8,67.7z"/>
			<path fill="#545454" d="M395.9,67.1c0-0.9,0.1-2,0.2-3.3c0.1-1.2,0.2-2.5,0.4-3.9c0.2-1.4,0.4-2.8,0.6-4.2
				c0.2-1.4,0.5-2.8,0.8-4.1c0.3-1.3,0.5-2.5,0.8-3.6c0.3-1.1,0.6-2,0.8-2.7c0.2-0.5,0.3-0.8,0.5-1.1c0.2-0.3,0.4-0.5,0.6-0.7
				c0.2-0.2,0.5-0.3,0.8-0.3c0.3-0.1,0.7-0.1,1.2-0.1c0.5,0,1,0,1.3,0.1c0.3,0.1,0.5,0.2,0.7,0.4c0.1,0.2,0.2,0.5,0.3,0.9
				c0,0.4,0,0.9,0,1.6c0,0.8,0,1.7,0,2.8c0,1.1,0,2.2,0.1,3.3h0.3c0.4-0.8,0.9-1.8,1.4-2.8c0.5-1,1.1-2,1.8-2.9
				c0.7-0.9,1.5-1.7,2.4-2.3s1.9-0.9,3.1-0.9c0.4,0,0.8,0.1,1.2,0.2c0.4,0.1,0.7,0.3,1,0.6c0.3,0.3,0.5,0.6,0.7,0.9
				c0.2,0.4,0.3,0.8,0.3,1.3c0,0.4-0.1,0.9-0.2,1.5c-0.1,0.6-0.2,1.3-0.3,2s-0.2,1.4-0.3,2.1c-0.1,0.7-0.2,1.2-0.2,1.7
				c0,0.8,0.1,1.4,0.2,1.9c0.1,0.5,0.3,0.9,0.6,1.2c0.2,0.3,0.5,0.5,0.8,0.7c0.3,0.1,0.6,0.2,1,0.2c1,0,1.9-0.2,3-0.6
				c1-0.4,1.9-0.9,2.8-1.4c1-0.6,2-1.3,2.9-2.1l-0.5,7.4c-0.6,0.4-1.2,0.8-1.9,1.2c-0.7,0.4-1.4,0.9-2.2,1.3c-0.8,0.4-1.6,0.7-2.5,1
				c-0.9,0.3-1.7,0.4-2.6,0.4c-1.6,0-2.9-0.3-3.8-1c-1-0.6-1.7-1.5-2.3-2.5c-0.6-1-1-2.2-1.3-3.5c-0.3-1.3-0.5-2.6-0.7-4h-0.5
				l-5.7,15.8c-0.3,0.8-0.6,1.5-0.8,2c-0.3,0.5-0.5,1-0.8,1.3c-0.3,0.3-0.6,0.6-0.9,0.7s-0.7,0.2-1,0.2c-0.9,0-1.6-0.2-2.1-0.6
				c-0.5-0.4-0.9-0.9-1.2-1.5c-0.3-0.6-0.5-1.3-0.6-2.1C395.9,68.8,395.9,68,395.9,67.1z"/>
			<path fill="#545454" d="M459.1,67.5c-1.5,1.2-3,2.2-4.4,3.1c-0.6,0.4-1.3,0.8-1.9,1.1c-0.7,0.4-1.3,0.7-2,1
				c-0.7,0.3-1.3,0.5-1.9,0.7c-0.6,0.2-1.2,0.3-1.7,0.3c-0.3,0-0.7-0.1-1.3-0.2c-0.6-0.1-1.2-0.4-1.9-0.8c-0.7-0.4-1.4-1-2.1-1.7
				c-0.7-0.7-1.3-1.7-1.8-3c-0.8,0.8-1.6,1.5-2.5,2.2c-0.9,0.7-1.8,1.3-2.7,1.8c-0.9,0.5-1.9,0.9-2.9,1.2c-1,0.3-1.9,0.5-2.9,0.5
				c-1.4,0-2.6-0.3-3.6-0.9c-1-0.6-1.8-1.4-2.5-2.4c-0.7-1-1.2-2.1-1.5-3.3c-0.3-1.2-0.5-2.5-0.5-3.9c0-1.4,0.2-2.7,0.5-4.1
				c0.3-1.4,0.9-2.7,1.5-4c0.7-1.3,1.5-2.5,2.4-3.7c1-1.2,2-2.2,3.2-3.1c1.2-0.9,2.5-1.6,3.9-2.2c1.4-0.6,2.9-1,4.5-1.1
				c0.1-2.7,0.3-5.4,0.7-8c0.4-2.6,1-5.2,1.7-7.6c0.7-2.4,1.5-4.6,2.5-6.6c0.9-2,2-3.8,3.1-5.3c1.1-1.5,2.3-2.6,3.6-3.5
				s2.6-1.3,3.9-1.3c1,0,1.8,0.3,2.5,0.8c0.7,0.5,1.3,1.2,1.7,2.1c0.4,0.9,0.7,1.9,0.9,3c0.2,1.1,0.3,2.3,0.3,3.5
				c0,0.7,0,1.5-0.1,2.3c-0.3,3-0.8,5.8-1.5,8.5c-0.7,2.7-1.6,5.2-2.6,7.8c-1,2.5-2.1,5-3.2,7.5c-1.2,2.5-2.3,5-3.4,7.7
				c-0.1,0.3-0.2,0.7-0.3,1.1c-0.1,0.4-0.2,0.9-0.3,1.4c-0.1,0.5-0.2,1-0.2,1.5c-0.1,0.5-0.1,1-0.1,1.5c0,0.6,0,1.2,0.1,1.7
				c0.1,0.6,0.2,1,0.4,1.5c0.2,0.4,0.4,0.8,0.7,1c0.3,0.3,0.6,0.4,1.1,0.4c0.4,0,0.8-0.1,1.3-0.2c0.5-0.2,1-0.4,1.5-0.7
				c0.5-0.3,1.1-0.6,1.6-0.9c0.5-0.3,1.1-0.7,1.6-1.1c1.2-0.8,2.4-1.8,3.6-2.9L459.1,67.5z M437.2,49.8c-1.4,0.7-2.6,1.6-3.7,2.7
				c-1.1,1.1-2,2.3-2.7,3.6c-0.7,1.3-1.3,2.6-1.7,3.9c-0.4,1.3-0.6,2.5-0.6,3.6c0,0.4,0,0.8,0.1,1.3c0.1,0.4,0.3,0.8,0.5,1.1
				c0.3,0.3,0.6,0.6,1.1,0.8c0.5,0.2,1.1,0.3,1.8,0.3c0.4,0,0.8-0.1,1.1-0.3c0.4-0.2,0.7-0.4,1.1-0.7c0.3-0.3,0.7-0.7,1-1
				c0.3-0.4,0.6-0.8,0.8-1.2c0.6-1,1.1-2.1,1.6-3.3c-0.1-0.3-0.1-0.8-0.2-1.4c0-0.6-0.1-1.4-0.1-2.2c0-0.8,0-1.6-0.1-2.5
				c0-0.8,0-1.6,0-2.3c0-0.7,0-1.3,0-1.7C437.3,49.9,437.3,49.7,437.2,49.8z M452.2,26.7c0.1-1.5,0.2-2.7,0.2-3.5
				c0-1.1-0.1-1.9-0.3-2.4s-0.5-0.7-0.9-0.7c-0.7,0-1.3,0.4-1.8,1.3c-0.5,0.9-1,2-1.5,3.3c-0.4,1.3-0.8,2.8-1.1,4.4
				c-0.3,1.6-0.6,3.2-0.8,4.7c-0.2,1.5-0.4,2.9-0.5,4.1s-0.2,2.1-0.3,2.6c-0.1,1-0.2,2-0.2,3s-0.1,1.8-0.1,2.6c0,0.8,0,1.5,0,2.1
				c0,0.6,0,1,0,1.4v0.3c1.2-2.8,2.3-5.5,3.3-8.2c0.4-1.2,0.9-2.4,1.3-3.7c0.4-1.3,0.8-2.6,1.2-3.9c0.4-1.3,0.7-2.6,0.9-3.8
				C451.9,29,452,27.9,452.2,26.7z"/>
		</g>
		<path fill="#F27C7C" d="M449.7,94.6h-115c-1.3,0-2.4-1.1-2.4-2.4l0,0c0-1.3,1.1-2.4,2.4-2.4h115c1.3,0,2.4,1.1,2.4,2.4l0,0
			C452.1,93.6,451,94.6,449.7,94.6z"/>
	</g>
</g>
<g id="Layer_5">
	<path fill="#7ECEC6" d="M149.2,95H8.4c-4.8,0-8.7-3.9-8.7-8.7V8.5c0-4.8,3.9-8.7,8.7-8.7h140.8c4.8,0,8.7,3.9,8.7,8.7v77.8
		C157.9,91.1,154,95,149.2,95z"/>
	<rect x="117" y="76.1" fill="#FFFFFF" width="0.1" height="1.9"/>
	<rect x="120.7" y="76.1" fill="#FFFFFF" width="0.3" height="1.9"/>
	<rect x="117" y="76.1" fill="#FFFFFF" width="0.1" height="1.9"/>
	<rect x="120.7" y="76.1" fill="#FFFFFF" width="0.3" height="1.9"/>
	<rect x="117" y="20.5" fill="#FFFFFF" width="0.1" height="0.5"/>
	<rect x="117" y="76.1" fill="#FFFFFF" width="0.1" height="2"/>
	<rect x="120.7" y="76.1" fill="#FFFFFF" width="0.3" height="2"/>
	<path fill="#FFFFFF" d="M131,24v50c0,1.1,0.9,2,2,2h9c1.1,0,2,0.9,2,2v2c0,1.1-0.9,2-2,2h-10c-1.1,0-2-0.9-2-2l0,0c0-1.1-0.9-2-2-2
		l0,0c-1.1,0-2,0.9-2,2l0,0c0,1.1-0.9,2-2,2h-10c-1.1,0-2-0.9-2-2v-2c0-1.1,0.9-2,2-2h9c1.1,0,2-0.9,2-2V24c0-1.1-0.9-2-2-2h-9
		c-1.1,0-2-0.9-2-2v-2c0-1.1,0.9-2,2-2h10c1.1,0,2,0.9,2,2v1c0,1.1,0.9,2,2,2l0,0c1.1,0,2-0.9,2-2v-1c0-1.1,0.9-2,2-2h10
		c1.1,0,2,0.9,2,2v2c0,1.1-0.9,2-2,2h-9C131.9,22,131,22.9,131,24z"/>
	<rect x="117" y="76.1" fill="#FFFFFF" width="0.1" height="1.9"/>
	<rect x="120.7" y="76.1" fill="#FFFFFF" width="0.3" height="1.9"/>
	<g>
		<path fill="#545454" d="M201.8,31.9c0,1.4,0.4,2.6,1.2,3.7c0.8,1.1,1.9,2.1,3.2,3.1c1.3,0.9,2.9,1.8,4.6,2.7
			c1.7,0.8,3.4,1.7,5.2,2.6s3.5,1.9,5.2,2.9c1.7,1,3.2,2.2,4.6,3.5c1.3,1.3,2.4,2.8,3.2,4.4c0.8,1.6,1.2,3.5,1.2,5.6
			c0,1.9-0.3,3.7-0.9,5.3c-0.6,1.6-1.5,3-2.5,4.3c-1.1,1.3-2.3,2.4-3.8,3.4s-3,1.8-4.7,2.4c-1.7,0.6-3.5,1.1-5.3,1.4
			c-1.9,0.3-3.7,0.5-5.6,0.5c-2.6,0-5.2-0.3-7.7-1c-2.5-0.6-4.7-1.6-6.7-2.9c-1.9-1.3-3.5-2.9-4.7-4.9c-1.2-2-1.8-4.2-1.8-6.9
			c0-1.4,0.2-2.5,0.7-3.6c0.4-1,1-1.9,1.6-2.6c0.6-0.7,1.3-1.2,2.1-1.6c0.8-0.3,1.5-0.5,2.1-0.5c0.7,0,1.2,0.2,1.7,0.6
			s0.7,0.9,0.7,1.7c0,0.4,0,0.7-0.1,1.1c-0.1,0.4-0.2,0.8-0.3,1.3c-0.1,0.5-0.2,1-0.3,1.6c-0.1,0.6-0.1,1.2-0.1,1.9
			c0,1.5,0.3,2.8,1,3.8c0.7,1.1,1.6,2,2.7,2.7c1.1,0.7,2.4,1.2,3.9,1.6c1.5,0.3,3,0.5,4.5,0.5c1.8,0,3.7-0.2,5.5-0.7s3.5-1.1,5-2
			c1.5-0.9,2.6-1.9,3.6-3.2c0.9-1.3,1.4-2.7,1.4-4.3c0-1.5-0.4-2.8-1.2-4c-0.8-1.2-1.9-2.3-3.2-3.3c-1.3-1-2.9-2-4.6-2.8
			s-3.5-1.8-5.2-2.7c-1.8-0.9-3.5-1.9-5.2-2.9c-1.7-1-3.2-2.1-4.6-3.3s-2.4-2.6-3.2-4c-0.8-1.5-1.2-3.2-1.2-5.1
			c0-1.8,0.4-3.5,1.3-5.3c0.9-1.7,2.1-3.3,3.9-4.6c1.7-1.4,3.9-2.5,6.5-3.3c2.6-0.8,5.6-1.3,9.1-1.3c2.2,0,4.4,0.3,6.5,1
			c2.1,0.7,4,1.6,5.6,2.8s3,2.6,4,4.3c1,1.7,1.5,3.5,1.5,5.6c0,1.2-0.2,2.4-0.6,3.7c-0.4,1.3-1.1,2.6-2,4c-0.9,1.3-1.9,2.3-2.9,3
			c-1,0.6-2,1-2.8,1c-0.6,0-1.2-0.2-1.6-0.6c-0.4-0.4-0.6-0.9-0.6-1.7c0-0.5,0.1-1.2,0.4-2c0.3-0.8,0.7-1.6,1.3-2.6
			c0.6-0.9,1-1.8,1.3-2.6c0.3-0.8,0.4-1.6,0.4-2.3c0-1.1-0.3-2-0.9-2.8c-0.6-0.8-1.4-1.5-2.4-2c-1-0.5-2.3-1-3.7-1.2
			c-1.4-0.3-3-0.4-4.7-0.4c-1.9,0-3.6,0.2-5,0.7c-1.4,0.4-2.6,1-3.5,1.7c-0.9,0.7-1.6,1.5-2.1,2.3C202,30.2,201.8,31,201.8,31.9z"/>
		<path fill="#545454" d="M246.6,55.8c0.8-1,1.6-2,2.5-3.2c0.9-1.2,1.8-2.3,2.7-3.3c0.9-1.1,1.7-2,2.4-2.8s1.3-1.4,1.7-1.7
			c0.7-0.5,1.5-0.9,2.4-1.2c1-0.3,2-0.5,3.2-0.5c0.6,0,1.2,0.1,1.7,0.4c0.5,0.3,1,0.7,1.4,1.2s0.7,1.1,1,1.8
			c0.2,0.7,0.3,1.5,0.3,2.4c0,0.9-0.2,1.7-0.6,2.6c-0.4,0.9-1,1.8-1.6,2.7s-1.3,1.8-2.1,2.7c-0.7,0.9-1.4,1.8-2.1,2.7
			c-0.6,0.9-1.2,1.8-1.6,2.7c-0.4,0.9-0.6,1.8-0.6,2.7c0,0.8,0.2,1.3,0.6,1.6c0.4,0.3,0.9,0.5,1.7,0.5c0.4,0,0.9-0.1,1.4-0.4
			c0.5-0.3,1-0.7,1.5-1.1c0.5-0.5,1.1-1,1.6-1.6c0.5-0.6,1.1-1.2,1.6-1.7c0.5-0.6,1-1.2,1.4-1.7c0.4-0.5,0.8-1,1.2-1.4l1.9,7.8
			c-0.7,1-1.5,1.8-2.5,2.6c-1,0.8-2.1,1.5-3.3,2.1c-1.2,0.6-2.4,1.1-3.7,1.4c-1.3,0.3-2.5,0.5-3.6,0.5c-1.5,0-2.8-0.2-3.7-0.6
			c-1-0.4-1.7-0.9-2.3-1.5c-0.6-0.6-0.9-1.3-1.1-2.1c-0.2-0.8-0.3-1.6-0.3-2.4c0-0.5,0.1-1.1,0.2-1.8c0.1-0.7,0.3-1.5,0.7-2.4
			c0.3-0.9,0.8-1.9,1.4-2.9c0.6-1.1,1.4-2.2,2.3-3.4c0.4-0.4,0.7-0.7,1-1c0.3-0.3,0.6-0.6,0.8-0.8c0.2-0.2,0.4-0.5,0.5-0.7
			c0.1-0.2,0.2-0.4,0.2-0.7c0-0.4-0.1-0.8-0.2-1.1c-0.2-0.3-0.4-0.4-0.7-0.4c-0.4,0-0.8,0.2-1.4,0.7c-0.6,0.5-1.2,1.3-1.9,2.4
			l-9.3,16.4c-0.5,0.8-1,1.4-1.5,1.8c-0.5,0.3-1.1,0.5-1.8,0.5c-0.9,0-1.6-0.2-2.2-0.6c-0.5-0.4-0.9-0.9-1.2-1.6
			c-0.3-0.7-0.4-1.4-0.5-2.3c-0.1-0.9-0.1-1.8-0.1-2.8c0-1.2,0-2.8,0.1-4.8c0.1-2,0.2-4.2,0.4-6.6c0.2-2.4,0.4-4.9,0.7-7.5
			c0.3-2.6,0.6-5.1,1-7.6c0.1-0.9,0.3-1.9,0.6-3.2c0.2-1.2,0.5-2.6,0.9-4c0.3-1.4,0.8-2.9,1.2-4.4c0.5-1.5,1-3,1.7-4.5
			c0.6-1.4,1.3-2.8,2.1-4.1c0.8-1.3,1.7-2.5,2.6-3.4c1-1,2-1.8,3.2-2.3c1.2-0.6,2.4-0.9,3.8-0.9c1.1,0,2,0.2,2.7,0.5
			c0.7,0.3,1.3,0.8,1.7,1.5c0.4,0.6,0.7,1.4,0.9,2.2c0.2,0.9,0.3,1.8,0.3,2.8c0,1.8-0.2,3.7-0.7,5.8c-0.5,2.1-1,4.2-1.7,6.2
			c-0.7,2.1-1.5,4.1-2.3,6.1c-0.8,2-1.6,3.7-2.4,5.3s-1.4,2.9-2,4c-0.6,1.1-1,1.8-1.2,2.1l-3.8,5.6L246.6,55.8z M252.8,20.1
			c-0.7,0-1.3,0.2-1.7,0.6c-0.5,0.4-0.9,1-1.4,1.8c-0.4,0.8-0.9,1.7-1.3,2.9c-0.4,1.1-0.9,2.4-1.5,3.7c-0.3,1.2-0.7,2.5-0.9,3.7
			c-0.3,1.3-0.5,2.6-0.8,3.9c-0.2,1.3-0.4,2.5-0.6,3.8c-0.2,1.2-0.3,2.4-0.5,3.5c-0.3,2.6-0.6,5.2-0.8,7.7c0.5-1.4,1-2.9,1.5-4.6
			c0.5-1.6,1.1-3.3,1.6-4.9c0.5-1.6,1-3.1,1.5-4.5c0.5-1.4,0.9-2.6,1.2-3.6c0.1-0.5,0.4-1,0.6-1.7c0.3-0.7,0.6-1.4,0.9-2.3
			c0.3-0.8,0.6-1.6,1-2.5c0.3-0.9,0.6-1.7,0.9-2.5c0.3-0.8,0.5-1.6,0.7-2.3s0.3-1.3,0.3-1.8C253.4,20.5,253.2,20.1,252.8,20.1z"/>
		<path fill="#545454" d="M287.1,66.8c-0.8,0.7-1.7,1.4-2.8,2.2c-1.1,0.8-2.4,1.5-3.7,2.2c-1.3,0.7-2.7,1.2-4,1.7
			c-1.4,0.4-2.7,0.7-3.9,0.7c-1.1,0-2-0.2-2.8-0.5s-1.4-0.7-1.8-1.3c-0.5-0.5-0.8-1.2-1-2c-0.2-0.8-0.3-1.7-0.3-2.6
			c0-1.3,0.2-2.9,0.5-4.6c0.3-1.8,0.7-3.6,1.1-5.5s0.9-3.8,1.4-5.7c0.5-1.9,0.9-3.6,1.3-5.2c0.1-0.5,0.4-1,0.9-1.4
			c0.4-0.4,0.9-0.7,1.5-1c0.6-0.2,1.1-0.4,1.7-0.5c0.6-0.1,1.1-0.2,1.6-0.2c0.9,0,1.5,0.2,1.8,0.5c0.3,0.3,0.5,0.8,0.5,1.3
			c0,0.5-0.1,1.1-0.3,2c-0.2,0.9-0.5,1.9-0.8,3c-0.3,1.1-0.7,2.3-1,3.6c-0.4,1.3-0.7,2.6-1,3.8c-0.3,1.3-0.6,2.5-0.8,3.7
			c-0.2,1.2-0.3,2.3-0.3,3.3c0,1,0.1,1.7,0.3,2.3c0.2,0.6,0.6,0.8,1.3,0.8c0.8,0,1.6-0.3,2.5-0.8c0.9-0.5,1.9-1.2,2.8-1.9
			c1-0.8,1.9-1.5,2.8-2.3c0.9-0.8,1.7-1.5,2.4-2.1V66.8z M272.9,34.1c0-0.5,0.1-1,0.3-1.7c0.2-0.6,0.6-1.2,1-1.7
			c0.5-0.5,1.1-1,1.9-1.4c0.8-0.4,1.8-0.6,3-0.6c0.7,0,1.4,0.1,2.1,0.3c0.7,0.2,1.2,0.4,1.7,0.8c0.5,0.3,0.9,0.8,1.2,1.4
			c0.3,0.6,0.4,1.2,0.4,2c0,0.7-0.1,1.4-0.3,2.1c-0.2,0.7-0.6,1.3-1.1,1.8c-0.5,0.5-1.1,1-1.9,1.3s-1.7,0.5-2.8,0.5
			c-1.9,0-3.2-0.4-4.1-1.3S272.9,35.6,272.9,34.1z"/>
		<path fill="#545454" d="M298.1,67.6c0-0.3,0-0.7,0.1-1.2c0-0.5,0.1-1.1,0.2-1.7c0.1-0.7,0.2-1.3,0.3-2.1c0.1-0.7,0.2-1.5,0.3-2.2
			c0.2-1.7,0.5-3.5,0.9-5.5h-0.5c-0.3,0.3-0.5,0.8-0.9,1.4c-0.3,0.6-0.8,1.6-1.4,2.8c-0.6,1.2-1.3,2.8-2.3,4.8
			c-0.9,2-2.1,4.4-3.6,7.3c-0.4,0.9-0.9,1.5-1.5,1.8c-0.6,0.3-1.2,0.5-1.9,0.5c-0.9,0-1.6-0.2-2.1-0.6c-0.5-0.4-0.9-0.9-1.2-1.5
			c-0.3-0.6-0.5-1.3-0.6-2.1c-0.1-0.8-0.1-1.6-0.1-2.5c0-0.9,0.1-1.9,0.2-3.1c0.1-1.2,0.2-2.4,0.4-3.7c0.2-1.3,0.4-2.7,0.6-4
			c0.2-1.4,0.5-2.7,0.7-3.9c0.2-1.2,0.5-2.4,0.7-3.4c0.3-1,0.5-1.9,0.7-2.5c0.2-0.7,0.4-1.2,0.6-1.6c0.2-0.4,0.4-0.7,0.7-0.9
			c0.2-0.2,0.5-0.4,0.9-0.4c0.3-0.1,0.8-0.1,1.3-0.1c0.8,0,1.4,0,1.9,0.1c0.5,0.1,0.8,0.2,1,0.4c0.2,0.2,0.4,0.5,0.4,0.9
			c0,0.4,0.1,0.9,0.1,1.6c0,0.4,0,0.8,0,1.2c0,0.5-0.1,1-0.1,1.5c-0.1,0.5-0.1,1.1-0.2,1.6c-0.1,0.6-0.2,1.1-0.2,1.6
			c-0.2,1.2-0.4,2.5-0.6,3.9l0.3,0.4c0-0.1,0.3-0.5,0.7-1.2c0.4-0.7,0.9-1.6,1.5-2.7c0.6-1,1.3-2.1,2-3.3c0.7-1.1,1.4-2.1,2-3
			c0.6-0.9,1.3-1.6,2-2.2c0.7-0.6,1.5-0.9,2.5-0.9c0.9,0,1.7,0.3,2.3,0.8c0.6,0.5,1,1.3,1,2.2c0,0.8-0.1,1.6-0.2,2.3
			c-0.1,0.7-0.2,1.5-0.4,2.2c-0.2,0.7-0.3,1.4-0.5,2c-0.2,0.7-0.3,1.3-0.5,2c-0.1,0.5-0.2,0.8-0.2,0.9c0,0.1,0,0.2,0,0.3l0.3,0.4
			c0-0.1,0.3-0.5,0.7-1.2c0.4-0.7,1-1.6,1.6-2.6c0.6-1,1.3-2.1,2.1-3.3c0.7-1.1,1.4-2.1,2-3c0.6-0.8,1.2-1.6,1.8-2.1
			c0.6-0.6,1.4-0.9,2.3-0.9c1,0,1.8,0.3,2.5,0.8c0.7,0.5,1,1.3,1,2.2c0,1.5-0.1,2.8-0.2,4.2c-0.1,1.3-0.3,2.6-0.5,3.9
			c-0.2,1.3-0.4,2.6-0.5,3.9c-0.1,1.3-0.2,2.7-0.2,4.1c0,1.1,0.1,2.1,0.4,2.8c0.3,0.7,0.7,1.1,1.1,1.1c0.4,0,0.9-0.1,1.4-0.3
			c0.5-0.2,1-0.4,1.5-0.7c0.5-0.3,1-0.6,1.5-1c0.5-0.4,1-0.8,1.4-1.2c1-1,2.1-2.1,3.1-3.3l0.5,7.5c-0.9,0.7-1.9,1.5-2.8,2.3
			c-0.9,0.8-1.9,1.5-2.9,2.2c-1,0.6-2.2,1.2-3.4,1.6c-1.2,0.4-2.6,0.6-4.2,0.6c-0.8,0-1.4-0.2-1.9-0.7c-0.5-0.5-0.9-1.2-1.3-2.1
			c-0.3-0.9-0.5-1.9-0.7-3.1c-0.1-1.2-0.2-2.5-0.2-3.9c0-1.3,0-2.7,0.1-4.2c0.1-1.5,0.2-3,0.4-4.5h-0.5l-6.4,16.4
			c-0.6,0.9-1.2,1.5-1.8,1.8c-0.7,0.3-1.5,0.5-2.3,0.5c-0.7,0-1.2-0.2-1.6-0.6c-0.4-0.4-0.7-0.8-0.9-1.4c-0.2-0.6-0.4-1.2-0.4-1.9
			C298.1,68.9,298.1,68.2,298.1,67.6z"/>
		<path fill="#545454" d="M340.3,57.8c-0.6,2.3-1.3,4.4-2.2,6.3s-1.7,3.6-2.7,5s-1.9,2.5-3,3.2s-2,1.2-3,1.2c-1.7,0-2.9-1.2-3.6-3.6
			c-0.8-2.4-1.2-6-1.2-10.8c0-0.7,0-1.3,0-1.8c0-0.5,0-1,0-1.6c0-0.5,0.1-1.1,0.1-1.7c0-0.6,0.1-1.3,0.2-2.2c0-0.2,0.1-0.6,0.1-1.1
			c0.1-0.5,0.2-1.1,0.3-1.8c0.2-0.7,0.4-1.3,0.6-2s0.6-1.4,1-1.9c0.4-0.6,0.9-1.1,1.5-1.4s1.2-0.6,2-0.6l0.8,0.1
			c0.9,0,1.6,0.2,2.1,0.6c0.5,0.4,0.7,0.9,0.7,1.5l-2.2,17.2l0.4,0c0.9-2.2,1.7-4.1,2.4-5.9c0.7-1.8,1.3-3.4,1.9-4.8
			c0.6-1.4,1.1-2.7,1.7-3.7c0.5-1.1,1.1-1.9,1.8-2.6s1.3-1.2,2.1-1.6c0.8-0.3,1.7-0.5,2.8-0.5c0.9,0,1.6,0.2,2.1,0.6
			c0.5,0.4,0.7,0.9,0.7,1.5l-2.6,17.2l0.4,0l7.6-16.9c0.3-0.6,0.8-1.1,1.7-1.6c0.8-0.5,1.9-0.7,3-0.7c1.2,0,2.2,0.2,2.9,0.7
			c0.7,0.5,1.1,1.1,1.1,1.9c0,0.6-0.1,1.2-0.3,1.9c-0.2,0.7-0.4,1.3-0.7,1.9c-0.2,0.6-0.5,1.1-0.7,1.5c-0.2,0.4-0.3,0.6-0.3,0.7
			c-0.5,0.8-0.9,1.6-1.3,2.3c-0.4,0.7-0.7,1.4-1,1.9c-0.4,0.6-0.7,1.2-1,1.8c0.3,0.8,0.7,1.6,1.1,2.2c0.4,0.6,0.9,1.1,1.5,1.5
			c0.6,0.5,1.3,0.7,2.1,0.7c0.7,0,1.5-0.2,2.4-0.6c0.9-0.4,1.8-0.8,2.6-1.3c1-0.5,1.9-1.1,2.9-1.8V66c-1.4,0.9-2.8,1.6-4.3,2.1
			c-1.5,0.5-2.9,0.8-4.3,0.8c-1.1,0-2.1-0.1-3.1-0.4c-1-0.3-1.8-0.7-2.5-1.2c-0.7-0.5-1.3-1.3-1.7-2.1S353,63.2,353,62
			c-0.7,1.7-1.5,3.2-2.3,4.6c-0.8,1.4-1.6,2.6-2.4,3.6s-1.7,1.8-2.5,2.4c-0.8,0.6-1.7,0.9-2.5,0.9c-0.3,0-0.6-0.2-0.8-0.7
			c-0.2-0.5-0.4-1.1-0.6-1.8c-0.1-0.8-0.3-1.7-0.4-2.7c-0.1-1-0.2-2.1-0.2-3.3s-0.1-2.3-0.1-3.5c0-1.2,0-2.4,0-3.5L340.3,57.8z"/>
		<path fill="#545454" d="M387.3,49.7c0.6,1.2,1.1,2.5,1.4,3.9c0.3,1.4,0.5,2.7,0.5,3.9c0,1.2-0.1,2.5-0.4,3.8
			c-0.3,1.3-0.7,2.5-1.2,3.7c-0.5,1.2-1.2,2.3-1.9,3.3c-0.8,1-1.6,1.9-2.6,2.7s-2,1.4-3.2,1.8s-2.4,0.7-3.6,0.7
			c-1.9,0-3.5-0.4-4.8-1.2c-1.3-0.8-2.4-1.9-3.3-3.2c-0.8-1.3-1.5-2.8-1.9-4.4s-0.6-3.3-0.6-5c0-2.3,0.3-4.5,1-6.5
			c0.7-2,1.7-3.8,3-5.3c1.3-1.5,2.9-2.7,4.8-3.5c1.9-0.9,4-1.3,6.3-1.3c2,0,3.9,0.3,5.6,0.9c1.8,0.6,3.4,1.5,4.9,2.5
			c1.5,1,3,2.2,4.3,3.6c1.3,1.4,2.6,2.8,3.7,4.2l-0.6,4.5c-0.6-0.8-1.3-1.6-2.3-2.5c-1-0.9-2-1.8-3.1-2.6c-1.1-0.8-2.2-1.6-3.2-2.4
			c-1.1-0.8-2-1.4-2.7-1.9L387.3,49.7z M377.5,67.4c0.7,0,1.4-0.4,2.1-1.1c0.7-0.7,1.3-1.7,1.8-2.8c0.5-1.1,0.9-2.3,1.2-3.7
			c0.3-1.3,0.5-2.6,0.5-3.9c0-1-0.1-1.9-0.2-2.7c-0.1-0.8-0.4-1.6-0.7-2.2c-0.3-0.6-0.7-1.1-1.1-1.5c-0.5-0.4-1-0.5-1.7-0.5
			c-0.9,0-1.7,0.4-2.5,1.1c-0.8,0.7-1.5,1.7-2.1,2.8c-0.6,1.2-1.1,2.4-1.4,3.8c-0.3,1.4-0.5,2.7-0.5,4c0,0.9,0.1,1.7,0.3,2.5
			c0.2,0.8,0.4,1.5,0.8,2c0.4,0.6,0.8,1,1.4,1.4C375.9,67.2,376.7,67.4,377.5,67.4z"/>
		<path fill="#545454" d="M395.5,66.9c0-0.9,0.1-2,0.2-3.3c0.1-1.2,0.2-2.5,0.4-3.9c0.2-1.4,0.4-2.8,0.6-4.2
			c0.2-1.4,0.5-2.8,0.8-4.1c0.3-1.3,0.5-2.5,0.8-3.6c0.3-1.1,0.6-2,0.8-2.7c0.2-0.5,0.3-0.8,0.5-1.1c0.2-0.3,0.4-0.5,0.6-0.7
			c0.2-0.2,0.5-0.3,0.8-0.3c0.3-0.1,0.7-0.1,1.2-0.1c0.5,0,1,0,1.3,0.1c0.3,0.1,0.5,0.2,0.7,0.4c0.1,0.2,0.2,0.5,0.3,0.9
			c0,0.4,0,0.9,0,1.6c0,0.8,0,1.7,0,2.8c0,1.1,0,2.2,0.1,3.3h0.3c0.4-0.8,0.9-1.8,1.4-2.8c0.5-1,1.1-2,1.8-2.9
			c0.7-0.9,1.5-1.7,2.4-2.3s1.9-0.9,3.1-0.9c0.4,0,0.8,0.1,1.2,0.2c0.4,0.1,0.7,0.3,1,0.6c0.3,0.3,0.5,0.6,0.7,0.9
			c0.2,0.4,0.3,0.8,0.3,1.3c0,0.4-0.1,0.9-0.2,1.5c-0.1,0.6-0.2,1.3-0.3,2s-0.2,1.4-0.3,2.1c-0.1,0.7-0.2,1.2-0.2,1.7
			c0,0.8,0.1,1.4,0.2,1.9c0.1,0.5,0.3,0.9,0.6,1.2c0.2,0.3,0.5,0.5,0.8,0.7c0.3,0.1,0.6,0.2,1,0.2c1,0,1.9-0.2,3-0.6
			c1-0.4,1.9-0.9,2.8-1.4c1-0.6,2-1.3,2.9-2.1l-0.5,7.4c-0.6,0.4-1.2,0.8-1.9,1.2c-0.7,0.4-1.4,0.9-2.2,1.3c-0.8,0.4-1.6,0.7-2.5,1
			c-0.9,0.3-1.7,0.4-2.6,0.4c-1.6,0-2.9-0.3-3.8-1c-1-0.6-1.7-1.5-2.3-2.5c-0.6-1-1-2.2-1.3-3.5c-0.3-1.3-0.5-2.6-0.7-4h-0.5
			l-5.7,15.8c-0.3,0.8-0.6,1.5-0.8,2c-0.3,0.5-0.5,1-0.8,1.3c-0.3,0.3-0.6,0.6-0.9,0.7s-0.7,0.2-1,0.2c-0.9,0-1.6-0.2-2.1-0.6
			c-0.5-0.4-0.9-0.9-1.2-1.5c-0.3-0.6-0.5-1.3-0.6-2.1C395.6,68.5,395.5,67.7,395.5,66.9z"/>
		<path fill="#545454" d="M458.7,67.3c-1.5,1.2-3,2.2-4.4,3.1c-0.6,0.4-1.3,0.8-1.9,1.1c-0.7,0.4-1.3,0.7-2,1
			c-0.7,0.3-1.3,0.5-1.9,0.7c-0.6,0.2-1.2,0.3-1.7,0.3c-0.3,0-0.7-0.1-1.3-0.2c-0.6-0.1-1.2-0.4-1.9-0.8c-0.7-0.4-1.4-1-2.1-1.7
			c-0.7-0.7-1.3-1.7-1.8-3c-0.8,0.8-1.6,1.5-2.5,2.2c-0.9,0.7-1.8,1.3-2.7,1.8c-0.9,0.5-1.9,0.9-2.9,1.2c-1,0.3-1.9,0.5-2.9,0.5
			c-1.4,0-2.6-0.3-3.6-0.9c-1-0.6-1.8-1.4-2.5-2.4c-0.7-1-1.2-2.1-1.5-3.3c-0.3-1.2-0.5-2.5-0.5-3.9c0-1.4,0.2-2.7,0.5-4.1
			c0.3-1.4,0.9-2.7,1.5-4c0.7-1.3,1.5-2.5,2.4-3.7c1-1.2,2-2.2,3.2-3.1c1.2-0.9,2.5-1.6,3.9-2.2c1.4-0.6,2.9-1,4.5-1.1
			c0.1-2.7,0.3-5.4,0.7-8c0.4-2.6,1-5.2,1.7-7.6c0.7-2.4,1.5-4.6,2.5-6.6c0.9-2,2-3.8,3.1-5.3c1.1-1.5,2.3-2.6,3.6-3.5
			s2.6-1.3,3.9-1.3c1,0,1.8,0.3,2.5,0.8c0.7,0.5,1.3,1.2,1.7,2.1c0.4,0.9,0.7,1.9,0.9,3c0.2,1.1,0.3,2.3,0.3,3.5
			c0,0.7,0,1.5-0.1,2.3c-0.3,3-0.8,5.8-1.5,8.5c-0.7,2.7-1.6,5.2-2.6,7.8c-1,2.5-2.1,5-3.2,7.5c-1.2,2.5-2.3,5-3.4,7.7
			c-0.1,0.3-0.2,0.7-0.3,1.1c-0.1,0.4-0.2,0.9-0.3,1.4c-0.1,0.5-0.2,1-0.2,1.5c-0.1,0.5-0.1,1-0.1,1.5c0,0.6,0,1.2,0.1,1.7
			c0.1,0.6,0.2,1,0.4,1.5c0.2,0.4,0.4,0.8,0.7,1c0.3,0.3,0.6,0.4,1.1,0.4c0.4,0,0.8-0.1,1.3-0.2c0.5-0.2,1-0.4,1.5-0.7
			c0.5-0.3,1.1-0.6,1.6-0.9c0.5-0.3,1.1-0.7,1.6-1.1c1.2-0.8,2.4-1.8,3.6-2.9L458.7,67.3z M436.9,49.5c-1.4,0.7-2.6,1.6-3.7,2.7
			c-1.1,1.1-2,2.3-2.7,3.6c-0.7,1.3-1.3,2.6-1.7,3.9c-0.4,1.3-0.6,2.5-0.6,3.6c0,0.4,0,0.8,0.1,1.3c0.1,0.4,0.3,0.8,0.5,1.1
			c0.3,0.3,0.6,0.6,1.1,0.8c0.5,0.2,1.1,0.3,1.8,0.3c0.4,0,0.8-0.1,1.1-0.3c0.4-0.2,0.7-0.4,1.1-0.7c0.3-0.3,0.7-0.7,1-1
			c0.3-0.4,0.6-0.8,0.8-1.2c0.6-1,1.1-2.1,1.6-3.3c-0.1-0.3-0.1-0.8-0.2-1.4c0-0.6-0.1-1.4-0.1-2.2c0-0.8,0-1.6-0.1-2.5
			c0-0.8,0-1.6,0-2.3c0-0.7,0-1.3,0-1.7C436.9,49.7,436.9,49.5,436.9,49.5z M451.8,26.5c0.1-1.5,0.2-2.7,0.2-3.5
			c0-1.1-0.1-1.9-0.3-2.4s-0.5-0.7-0.9-0.7c-0.7,0-1.3,0.4-1.8,1.3c-0.5,0.9-1,2-1.5,3.3c-0.4,1.3-0.8,2.8-1.1,4.4
			c-0.3,1.6-0.6,3.2-0.8,4.7c-0.2,1.5-0.4,2.9-0.5,4.1s-0.2,2.1-0.3,2.6c-0.1,1-0.2,2-0.2,3s-0.1,1.8-0.1,2.6c0,0.8,0,1.5,0,2.1
			c0,0.6,0,1,0,1.4v0.3c1.2-2.8,2.3-5.5,3.3-8.2c0.4-1.2,0.9-2.4,1.3-3.7c0.4-1.3,0.8-2.6,1.2-3.9c0.4-1.3,0.7-2.6,0.9-3.8
			C451.5,28.8,451.7,27.6,451.8,26.5z"/>
	</g>
	<path fill="#7ECEC6" d="M449.4,94.4h-115c-1.3,0-2.4-1.1-2.4-2.4l0,0c0-1.3,1.1-2.4,2.4-2.4h115c1.3,0,2.4,1.1,2.4,2.4l0,0
		C451.8,93.3,450.7,94.4,449.4,94.4z"/>
</g>
</svg>